<?xml version="1.0" encoding="UTF-8"?>
<svg version="1.1" xmlns="http://www.w3.org/2000/svg" width="500" height="500">
	<path
		d="M0 0 C3.01420194 0.0107267 6.02780812 0.0000393 9.04199219 -0.01269531 C23.37983561 -0.02357625 37.22041521 0.9560905 51.26855469 4.01074219 C52.44115845 4.26343872 52.44115845 4.26343872 53.63745117 4.52124023 C85.39172863 11.60967147 120.55542671 25.08260887 145.01855469 47.26074219 C145.01855469 47.92074219 145.01855469 48.58074219 145.01855469 49.26074219 C145.71980469 49.48761719 146.42105469 49.71449219 147.14355469 49.94824219 C150.75984004 51.59915507 153.10625445 53.55162569 156.01855469 56.26074219 C156.01855469 56.92074219 156.01855469 57.58074219 156.01855469 58.26074219 C156.67855469 58.26074219 157.33855469 58.26074219 158.01855469 58.26074219 C158.01855469 58.92074219 158.01855469 59.58074219 158.01855469 60.26074219 C158.67855469 60.26074219 159.33855469 60.26074219 160.01855469 60.26074219 C160.01855469 60.92074219 160.01855469 61.58074219 160.01855469 62.26074219 C160.67855469 62.26074219 161.33855469 62.26074219 162.01855469 62.26074219 C162.01855469 62.92074219 162.01855469 63.58074219 162.01855469 64.26074219 C162.61667969 64.52886719 163.21480469 64.79699219 163.83105469 65.07324219 C166.01703322 66.25991625 167.43188063 67.35673331 169.01855469 69.26074219 C169.01855469 69.92074219 169.01855469 70.58074219 169.01855469 71.26074219 C169.67855469 71.26074219 170.33855469 71.26074219 171.01855469 71.26074219 C174.01855469 74.72228065 174.01855469 74.72228065 174.01855469 77.26074219 C174.63730469 77.48761719 175.25605469 77.71449219 175.89355469 77.94824219 C178.63265678 79.64004054 179.06879941 81.2531838 180.01855469 84.26074219 C180.67855469 84.26074219 181.33855469 84.26074219 182.01855469 84.26074219 C183.65285219 86.35523899 185.16022703 88.4385631 186.64355469 90.63574219 C187.06378906 91.23902344 187.48402344 91.84230469 187.91699219 92.46386719 C191.01855469 96.99537084 191.01855469 96.99537084 191.01855469 99.26074219 C191.67855469 99.26074219 192.33855469 99.26074219 193.01855469 99.26074219 C194.09667969 100.65576172 194.09667969 100.65576172 195.26855469 102.64355469 C195.92645996 103.75899658 195.92645996 103.75899658 196.59765625 104.89697266 C197.06655273 105.7182666 197.53544922 106.53956055 198.01855469 107.38574219 C198.74896973 108.66215576 198.74896973 108.66215576 199.49414062 109.96435547 C214.62702414 136.91460077 224.68775694 166.47022812 228.01855469 197.26074219 C228.12941406 198.19273437 228.24027344 199.12472656 228.35449219 200.08496094 C232.70654219 244.13476436 225.45175098 293.26783923 201.36230469 331.13183594 C200.07328876 333.17402687 198.95038559 335.24702064 197.83105469 337.38574219 C194.15101176 344.11634701 189.57247768 350.31987884 185.17602539 356.59423828 C184.10464575 358.13678995 183.06034604 359.69805515 182.01855469 361.26074219 C181.35855469 361.26074219 180.69855469 361.26074219 180.01855469 361.26074219 C179.83292969 361.92074219 179.64730469 362.58074219 179.45605469 363.26074219 C177.41046694 367.52979487 174.44670825 371.00237925 171.01855469 374.26074219 C170.35855469 374.26074219 169.69855469 374.26074219 169.01855469 374.26074219 C169.01855469 374.92074219 169.01855469 375.58074219 169.01855469 376.26074219 C168.35855469 376.26074219 167.69855469 376.26074219 167.01855469 376.26074219 C166.70917969 377.09605469 166.70917969 377.09605469 166.39355469 377.94824219 C165.05008716 380.2077103 163.96697767 381.26060779 161.95605469 382.88574219 C159.01030756 384.93193615 159.01030756 384.93193615 158.01855469 387.26074219 C157.35855469 387.26074219 156.69855469 387.26074219 156.01855469 387.26074219 C156.01855469 387.92074219 156.01855469 388.58074219 156.01855469 389.26074219 C154.28463517 390.86708234 152.48046369 392.39827089 150.64355469 393.88574219 C149.64582031 394.70300781 148.64808594 395.52027344 147.62011719 396.36230469 C145.01855469 398.26074219 145.01855469 398.26074219 143.01855469 398.26074219 C143.01855469 398.92074219 143.01855469 399.58074219 143.01855469 400.26074219 C137.60678998 404.26074219 137.60678998 404.26074219 135.01855469 404.26074219 C135.01855469 404.92074219 135.01855469 405.58074219 135.01855469 406.26074219 C132.8594993 407.81190819 130.71125061 409.23738362 128.45605469 410.63574219 C127.54243164 411.21582031 127.54243164 411.21582031 126.61035156 411.80761719 C124.75683835 412.97660541 122.89118446 414.12265838 121.01855469 415.26074219 C120.38449707 415.65036133 119.75043945 416.03998047 119.09716797 416.44140625 C114.37633277 419.26074219 114.37633277 419.26074219 111.01855469 419.26074219 C111.01855469 419.92074219 111.01855469 420.58074219 111.01855469 421.26074219 C77.87765791 436.92398167 43.99426776 447.70920058 7.08276367 447.52148438 C4.58650356 447.51076558 2.0909651 447.52145252 -0.40527344 447.53417969 C-15.49696524 447.54931241 -30.02022841 446.08718674 -44.73144531 442.57324219 C-45.8392334 442.31051514 -46.94702148 442.04778809 -48.08837891 441.77709961 C-71.42447558 436.08965896 -93.02503353 426.97317822 -113.98144531 415.26074219 C-113.98144531 414.60074219 -113.98144531 413.94074219 -113.98144531 413.26074219 C-114.5745752 413.13997314 -115.16770508 413.0192041 -115.77880859 412.89477539 C-119.28170374 411.8864603 -121.96515968 409.59368662 -124.85644531 407.44824219 C-126.06151011 406.56582377 -127.26723347 405.68430395 -128.47363281 404.80371094 C-129.34713379 404.16054932 -129.34713379 404.16054932 -130.23828125 403.50439453 C-131.93407401 402.29453903 -133.66722671 401.17582426 -135.42675781 400.06152344 C-136.26980469 399.46726562 -137.11285156 398.87300781 -137.98144531 398.26074219 C-137.98144531 397.60074219 -137.98144531 396.94074219 -137.98144531 396.26074219 C-138.60019531 395.95136719 -139.21894531 395.64199219 -139.85644531 395.32324219 C-141.23144531 394.63574219 -142.60644531 393.94824219 -143.98144531 393.26074219 C-143.98144531 392.60074219 -143.98144531 391.94074219 -143.98144531 391.26074219 C-144.55870361 391.00800537 -145.13596191 390.75526855 -145.73071289 390.49487305 C-148.25451051 389.11101396 -149.95567857 387.54533341 -151.99316406 385.51464844 C-152.74726563 384.76465576 -153.50136719 384.01466309 -154.27832031 383.24194336 C-155.46167969 382.04468628 -155.46167969 382.04468628 -156.66894531 380.82324219 C-157.47460938 380.01153564 -158.28027344 379.1998291 -159.11035156 378.36352539 C-174.25322507 362.96796437 -174.25322507 362.96796437 -176.98144531 355.26074219 C-177.64144531 355.26074219 -178.30144531 355.26074219 -178.98144531 355.26074219 C-180.22729492 353.75805664 -180.22729492 353.75805664 -181.63378906 351.62402344 C-182.1574707 350.8302832 -182.68115234 350.03654297 -183.22070312 349.21875 C-183.78112305 348.34573242 -184.34154297 347.47271484 -184.91894531 346.57324219 C-185.49870117 345.67057617 -186.07845703 344.76791016 -186.67578125 343.83789062 C-200.06261059 322.67806361 -210.6165072 299.81855748 -215.98144531 275.26074219 C-216.1498291 274.49262207 -216.31821289 273.72450195 -216.49169922 272.93310547 C-223.82092437 238.86909155 -223.58994639 205.2553084 -215.98144531 171.26074219 C-215.7368457 170.16294434 -215.7368457 170.16294434 -215.48730469 169.04296875 C-209.98825544 145.28313245 -199.76274875 122.92413268 -186.98144531 102.26074219 C-186.54574219 101.55320801 -186.11003906 100.84567383 -185.66113281 100.11669922 C-181.2520745 93.03198253 -181.2520745 93.03198253 -178.98144531 90.26074219 C-178.32144531 90.26074219 -177.66144531 90.26074219 -176.98144531 90.26074219 C-176.77003906 89.57753906 -176.55863281 88.89433594 -176.34082031 88.19042969 C-174.5525355 84.33636759 -172.03905693 81.5425933 -169.23144531 78.38574219 C-168.71839844 77.79921875 -168.20535156 77.21269531 -167.67675781 76.60839844 C-166.6421897 75.42566353 -165.60378121 74.24627669 -164.56152344 73.0703125 C-163.46451107 71.81396891 -162.38624644 70.54110539 -161.32324219 69.25585938 C-160.79279297 68.61551758 -160.26234375 67.97517578 -159.71582031 67.31542969 C-159.23854492 66.73003418 -158.76126953 66.14463867 -158.26953125 65.54150391 C-156.98144531 64.26074219 -156.98144531 64.26074219 -154.98144531 64.26074219 C-154.98144531 63.60074219 -154.98144531 62.94074219 -154.98144531 62.26074219 C-154.32144531 62.26074219 -153.66144531 62.26074219 -152.98144531 62.26074219 C-152.98144531 61.60074219 -152.98144531 60.94074219 -152.98144531 60.26074219 C-152.32144531 60.26074219 -151.66144531 60.26074219 -150.98144531 60.26074219 C-150.98144531 59.60074219 -150.98144531 58.94074219 -150.98144531 58.26074219 C-149.2475258 56.65440204 -147.44335432 55.12321349 -145.60644531 53.63574219 C-144.60871094 52.81847656 -143.61097656 52.00121094 -142.58300781 51.15917969 C-139.98144531 49.26074219 -139.98144531 49.26074219 -137.98144531 49.26074219 C-137.98144531 48.60074219 -137.98144531 47.94074219 -137.98144531 47.26074219 C-135.6259009 45.36519268 -133.27026103 43.61273653 -130.79394531 41.88574219 C-129.66001343 41.0926062 -129.66001343 41.0926062 -128.50317383 40.28344727 C-114.47921551 30.65078628 -99.72053856 22.67744943 -83.98144531 16.26074219 C-82.97339844 15.8134375 -81.96535156 15.36613281 -80.92675781 14.90527344 C-69.52795195 9.88547411 -57.56840861 6.697626 -45.41894531 4.07324219 C-44.71310303 3.91847412 -44.00726074 3.76370605 -43.2800293 3.60424805 C-28.84351679 0.62759747 -14.69549872 -0.06208693 0 0 Z "
		fill="#EA9B26" transform="translate(243.9814453125,19.7392578125)" />
	<path
		d="M0 0 C2.55924993 2.27629655 4.96760638 4.66211417 7.3671875 7.10546875 C8.2128125 7.95109375 9.0584375 8.79671875 9.9296875 9.66796875 C11.13625 10.87453125 11.13625 10.87453125 12.3671875 12.10546875 C13.1303125 12.82734375 13.8934375 13.54921875 14.6796875 14.29296875 C16.3671875 16.10546875 16.3671875 16.10546875 16.3671875 18.10546875 C17.0271875 18.10546875 17.6871875 18.10546875 18.3671875 18.10546875 C18.6971875 19.42546875 19.0271875 20.74546875 19.3671875 22.10546875 C20.0271875 22.10546875 20.6871875 22.10546875 21.3671875 22.10546875 C22.95710538 24.51704195 24.42993797 26.91770559 25.8671875 29.41796875 C26.66876524 30.78935814 27.47083133 32.16046224 28.2734375 33.53125 C28.62728516 34.14395752 28.98113281 34.75666504 29.34570312 35.38793945 C30.30025546 36.99292886 31.33134356 38.55170284 32.3671875 40.10546875 C32.3671875 41.09546875 32.3671875 42.08546875 32.3671875 43.10546875 C33.0271875 43.10546875 33.6871875 43.10546875 34.3671875 43.10546875 C51.35717154 83.22792081 53.58999305 125.75590268 37.44042969 166.54785156 C34.87044719 172.67231395 31.79713686 178.42483983 28.3671875 184.10546875 C27.86574219 184.93820312 27.36429687 185.7709375 26.84765625 186.62890625 C19.63555053 197.95370036 10.246146 209.01351323 0.3671875 218.10546875 C-0.2928125 218.10546875 -0.9528125 218.10546875 -1.6328125 218.10546875 C-1.6328125 218.76546875 -1.6328125 219.42546875 -1.6328125 220.10546875 C-3.7273093 221.73976626 -5.81063341 223.24714109 -8.0078125 224.73046875 C-8.91273438 225.36082031 -8.91273438 225.36082031 -9.8359375 226.00390625 C-14.36744115 229.10546875 -14.36744115 229.10546875 -16.6328125 229.10546875 C-16.6328125 229.76546875 -16.6328125 230.42546875 -16.6328125 231.10546875 C-21.29003674 233.46037637 -25.95612709 235.79581461 -30.63378906 238.10986328 C-32.23162663 238.90565976 -33.82052378 239.71939838 -35.40625 240.5390625 C-65.32916231 255.30684285 -103.38491538 256.37389163 -134.83789062 246.15795898 C-144.28538088 242.93993747 -153.47063567 239.05045699 -162.6328125 235.10546875 C-162.6328125 234.44546875 -162.6328125 233.78546875 -162.6328125 233.10546875 C-163.4165625 232.91984375 -164.2003125 232.73421875 -165.0078125 232.54296875 C-170.06333181 230.53819385 -174.4640357 227.59867303 -178.6328125 224.10546875 C-178.6328125 223.44546875 -178.6328125 222.78546875 -178.6328125 222.10546875 C-179.15875 221.89664062 -179.6846875 221.6878125 -180.2265625 221.47265625 C-183.64593091 219.52983329 -186.28572712 216.92261071 -189.1328125 214.23046875 C-189.70128906 213.70066406 -190.26976562 213.17085937 -190.85546875 212.625 C-192.45686771 211.12763624 -194.04595106 209.61820706 -195.6328125 208.10546875 C-196.426875 207.36039063 -197.2209375 206.6153125 -198.0390625 205.84765625 C-199.6328125 204.10546875 -199.6328125 204.10546875 -199.6328125 202.10546875 C-200.2928125 202.10546875 -200.9528125 202.10546875 -201.6328125 202.10546875 C-202.1278125 200.12546875 -202.1278125 200.12546875 -202.6328125 198.10546875 C-203.2928125 198.10546875 -203.9528125 198.10546875 -204.6328125 198.10546875 C-206.03569897 196.15362671 -207.35715843 194.14274253 -208.6328125 192.10546875 C-209.25800781 191.13609375 -209.88320312 190.16671875 -210.52734375 189.16796875 C-230.75208609 156.87428649 -239.67199634 117.13972845 -231.46020508 79.40136719 C-230.88227537 76.96041583 -230.26213257 74.53361998 -229.6328125 72.10546875 C-229.43977539 71.29674316 -229.24673828 70.48801758 -229.04785156 69.65478516 C-225.32768565 54.22128896 -218.77811394 35.77088426 -207.6328125 24.10546875 C-206.9728125 24.10546875 -206.3128125 24.10546875 -205.6328125 24.10546875 C-205.4059375 23.23664063 -205.1790625 22.3678125 -204.9453125 21.47265625 C-203.42369296 17.56897754 -201.48147931 15.28616076 -198.6328125 12.23046875 C-197.7459375 11.26367188 -196.8590625 10.296875 -195.9453125 9.30078125 C-193.6328125 7.10546875 -193.6328125 7.10546875 -191.6328125 7.10546875 C-191.6328125 6.44546875 -191.6328125 5.78546875 -191.6328125 5.10546875 C-183.09660937 -3.97230617 -171.5364669 -11.9809594 -160.6328125 -17.89453125 C-159.61058594 -18.45785156 -158.58835937 -19.02117187 -157.53515625 -19.6015625 C-105.57151602 -46.98538668 -44.28599284 -36.76703144 0 0 Z "
		fill="#CB801B" transform="translate(340.6328125,127.89453125)" />
	<path
		d="M0 0 C3.01420194 0.0107267 6.02780812 0.0000393 9.04199219 -0.01269531 C23.37983561 -0.02357625 37.22041521 0.9560905 51.26855469 4.01074219 C52.44115845 4.26343872 52.44115845 4.26343872 53.63745117 4.52124023 C85.39172863 11.60967147 120.55542671 25.08260887 145.01855469 47.26074219 C145.01855469 47.92074219 145.01855469 48.58074219 145.01855469 49.26074219 C145.71980469 49.48761719 146.42105469 49.71449219 147.14355469 49.94824219 C150.75984004 51.59915507 153.10625445 53.55162569 156.01855469 56.26074219 C156.01855469 56.92074219 156.01855469 57.58074219 156.01855469 58.26074219 C156.67855469 58.26074219 157.33855469 58.26074219 158.01855469 58.26074219 C158.01855469 58.92074219 158.01855469 59.58074219 158.01855469 60.26074219 C158.67855469 60.26074219 159.33855469 60.26074219 160.01855469 60.26074219 C160.01855469 60.92074219 160.01855469 61.58074219 160.01855469 62.26074219 C160.67855469 62.26074219 161.33855469 62.26074219 162.01855469 62.26074219 C162.01855469 62.92074219 162.01855469 63.58074219 162.01855469 64.26074219 C162.61667969 64.52886719 163.21480469 64.79699219 163.83105469 65.07324219 C166.01703322 66.25991625 167.43188063 67.35673331 169.01855469 69.26074219 C169.01855469 69.92074219 169.01855469 70.58074219 169.01855469 71.26074219 C169.67855469 71.26074219 170.33855469 71.26074219 171.01855469 71.26074219 C174.01855469 74.72228065 174.01855469 74.72228065 174.01855469 77.26074219 C174.63730469 77.48761719 175.25605469 77.71449219 175.89355469 77.94824219 C178.63265678 79.64004054 179.06879941 81.2531838 180.01855469 84.26074219 C180.67855469 84.26074219 181.33855469 84.26074219 182.01855469 84.26074219 C183.65285219 86.35523899 185.16022703 88.4385631 186.64355469 90.63574219 C187.06378906 91.23902344 187.48402344 91.84230469 187.91699219 92.46386719 C191.01855469 96.99537084 191.01855469 96.99537084 191.01855469 99.26074219 C191.67855469 99.26074219 192.33855469 99.26074219 193.01855469 99.26074219 C194.09667969 100.65576172 194.09667969 100.65576172 195.26855469 102.64355469 C195.92645996 103.75899658 195.92645996 103.75899658 196.59765625 104.89697266 C197.06655273 105.7182666 197.53544922 106.53956055 198.01855469 107.38574219 C198.74896973 108.66215576 198.74896973 108.66215576 199.49414062 109.96435547 C214.62702414 136.91460077 224.68775694 166.47022812 228.01855469 197.26074219 C228.12941406 198.19273437 228.24027344 199.12472656 228.35449219 200.08496094 C232.70654219 244.13476436 225.45175098 293.26783923 201.36230469 331.13183594 C200.07328876 333.17402687 198.95038559 335.24702064 197.83105469 337.38574219 C194.15101176 344.11634701 189.57247768 350.31987884 185.17602539 356.59423828 C184.10464575 358.13678995 183.06034604 359.69805515 182.01855469 361.26074219 C181.35855469 361.26074219 180.69855469 361.26074219 180.01855469 361.26074219 C179.83292969 361.92074219 179.64730469 362.58074219 179.45605469 363.26074219 C177.41046694 367.52979487 174.44670825 371.00237925 171.01855469 374.26074219 C170.35855469 374.26074219 169.69855469 374.26074219 169.01855469 374.26074219 C169.01855469 374.92074219 169.01855469 375.58074219 169.01855469 376.26074219 C168.35855469 376.26074219 167.69855469 376.26074219 167.01855469 376.26074219 C166.70917969 377.09605469 166.70917969 377.09605469 166.39355469 377.94824219 C165.05008716 380.2077103 163.96697767 381.26060779 161.95605469 382.88574219 C159.01030756 384.93193615 159.01030756 384.93193615 158.01855469 387.26074219 C157.35855469 387.26074219 156.69855469 387.26074219 156.01855469 387.26074219 C156.01855469 387.92074219 156.01855469 388.58074219 156.01855469 389.26074219 C154.28463517 390.86708234 152.48046369 392.39827089 150.64355469 393.88574219 C149.64582031 394.70300781 148.64808594 395.52027344 147.62011719 396.36230469 C145.01855469 398.26074219 145.01855469 398.26074219 143.01855469 398.26074219 C143.01855469 398.92074219 143.01855469 399.58074219 143.01855469 400.26074219 C137.60678998 404.26074219 137.60678998 404.26074219 135.01855469 404.26074219 C135.01855469 404.92074219 135.01855469 405.58074219 135.01855469 406.26074219 C132.8594993 407.81190819 130.71125061 409.23738362 128.45605469 410.63574219 C127.54243164 411.21582031 127.54243164 411.21582031 126.61035156 411.80761719 C124.75683835 412.97660541 122.89118446 414.12265838 121.01855469 415.26074219 C120.38449707 415.65036133 119.75043945 416.03998047 119.09716797 416.44140625 C114.37633277 419.26074219 114.37633277 419.26074219 111.01855469 419.26074219 C111.01855469 419.92074219 111.01855469 420.58074219 111.01855469 421.26074219 C77.87765791 436.92398167 43.99426776 447.70920058 7.08276367 447.52148438 C4.58650356 447.51076558 2.0909651 447.52145252 -0.40527344 447.53417969 C-15.49696524 447.54931241 -30.02022841 446.08718674 -44.73144531 442.57324219 C-45.8392334 442.31051514 -46.94702148 442.04778809 -48.08837891 441.77709961 C-71.42447558 436.08965896 -93.02503353 426.97317822 -113.98144531 415.26074219 C-113.98144531 414.60074219 -113.98144531 413.94074219 -113.98144531 413.26074219 C-114.5745752 413.13997314 -115.16770508 413.0192041 -115.77880859 412.89477539 C-119.28170374 411.8864603 -121.96515968 409.59368662 -124.85644531 407.44824219 C-126.06151011 406.56582377 -127.26723347 405.68430395 -128.47363281 404.80371094 C-129.34713379 404.16054932 -129.34713379 404.16054932 -130.23828125 403.50439453 C-131.93407401 402.29453903 -133.66722671 401.17582426 -135.42675781 400.06152344 C-136.26980469 399.46726562 -137.11285156 398.87300781 -137.98144531 398.26074219 C-137.98144531 397.60074219 -137.98144531 396.94074219 -137.98144531 396.26074219 C-138.60019531 395.95136719 -139.21894531 395.64199219 -139.85644531 395.32324219 C-141.23144531 394.63574219 -142.60644531 393.94824219 -143.98144531 393.26074219 C-143.98144531 392.60074219 -143.98144531 391.94074219 -143.98144531 391.26074219 C-144.55870361 391.00800537 -145.13596191 390.75526855 -145.73071289 390.49487305 C-148.25451051 389.11101396 -149.95567857 387.54533341 -151.99316406 385.51464844 C-152.74726563 384.76465576 -153.50136719 384.01466309 -154.27832031 383.24194336 C-155.46167969 382.04468628 -155.46167969 382.04468628 -156.66894531 380.82324219 C-157.47460938 380.01153564 -158.28027344 379.1998291 -159.11035156 378.36352539 C-174.25322507 362.96796437 -174.25322507 362.96796437 -176.98144531 355.26074219 C-177.64144531 355.26074219 -178.30144531 355.26074219 -178.98144531 355.26074219 C-180.22729492 353.75805664 -180.22729492 353.75805664 -181.63378906 351.62402344 C-182.1574707 350.8302832 -182.68115234 350.03654297 -183.22070312 349.21875 C-183.78112305 348.34573242 -184.34154297 347.47271484 -184.91894531 346.57324219 C-185.49870117 345.67057617 -186.07845703 344.76791016 -186.67578125 343.83789062 C-200.06261059 322.67806361 -210.6165072 299.81855748 -215.98144531 275.26074219 C-216.1498291 274.49262207 -216.31821289 273.72450195 -216.49169922 272.93310547 C-223.82092437 238.86909155 -223.58994639 205.2553084 -215.98144531 171.26074219 C-215.7368457 170.16294434 -215.7368457 170.16294434 -215.48730469 169.04296875 C-209.98825544 145.28313245 -199.76274875 122.92413268 -186.98144531 102.26074219 C-186.54574219 101.55320801 -186.11003906 100.84567383 -185.66113281 100.11669922 C-181.2520745 93.03198253 -181.2520745 93.03198253 -178.98144531 90.26074219 C-178.32144531 90.26074219 -177.66144531 90.26074219 -176.98144531 90.26074219 C-176.77003906 89.57753906 -176.55863281 88.89433594 -176.34082031 88.19042969 C-174.5525355 84.33636759 -172.03905693 81.5425933 -169.23144531 78.38574219 C-168.71839844 77.79921875 -168.20535156 77.21269531 -167.67675781 76.60839844 C-166.6421897 75.42566353 -165.60378121 74.24627669 -164.56152344 73.0703125 C-163.46451107 71.81396891 -162.38624644 70.54110539 -161.32324219 69.25585938 C-160.79279297 68.61551758 -160.26234375 67.97517578 -159.71582031 67.31542969 C-159.23854492 66.73003418 -158.76126953 66.14463867 -158.26953125 65.54150391 C-156.98144531 64.26074219 -156.98144531 64.26074219 -154.98144531 64.26074219 C-154.98144531 63.60074219 -154.98144531 62.94074219 -154.98144531 62.26074219 C-154.32144531 62.26074219 -153.66144531 62.26074219 -152.98144531 62.26074219 C-152.98144531 61.60074219 -152.98144531 60.94074219 -152.98144531 60.26074219 C-152.32144531 60.26074219 -151.66144531 60.26074219 -150.98144531 60.26074219 C-150.98144531 59.60074219 -150.98144531 58.94074219 -150.98144531 58.26074219 C-149.2475258 56.65440204 -147.44335432 55.12321349 -145.60644531 53.63574219 C-144.60871094 52.81847656 -143.61097656 52.00121094 -142.58300781 51.15917969 C-139.98144531 49.26074219 -139.98144531 49.26074219 -137.98144531 49.26074219 C-137.98144531 48.60074219 -137.98144531 47.94074219 -137.98144531 47.26074219 C-135.6259009 45.36519268 -133.27026103 43.61273653 -130.79394531 41.88574219 C-129.66001343 41.0926062 -129.66001343 41.0926062 -128.50317383 40.28344727 C-114.47921551 30.65078628 -99.72053856 22.67744943 -83.98144531 16.26074219 C-82.97339844 15.8134375 -81.96535156 15.36613281 -80.92675781 14.90527344 C-69.52795195 9.88547411 -57.56840861 6.697626 -45.41894531 4.07324219 C-44.71310303 3.91847412 -44.00726074 3.76370605 -43.2800293 3.60424805 C-28.84351679 0.62759747 -14.69549872 -0.06208693 0 0 Z M-51.98144531 39.26074219 C-53.05007812 39.55722656 -54.11871094 39.85371094 -55.21972656 40.15917969 C-74.01757149 45.95540344 -91.95327105 54.9356922 -107.98144531 66.26074219 C-108.58666016 66.6811377 -109.191875 67.1015332 -109.81542969 67.53466797 C-127.97847238 80.27542719 -145.35575731 96.40852969 -156.90380859 115.48193359 C-157.9719546 117.24507628 -159.07755216 118.97857059 -160.19628906 120.70996094 C-185.57901924 160.65112853 -196.60608996 213.06943269 -186.56787109 259.75146484 C-179.28801852 290.90147516 -166.27993181 322.71103801 -143.98144531 346.26074219 C-142.4733612 347.88618693 -140.96922591 349.51522801 -139.46557617 351.14477539 C-138.42356487 352.27215858 -137.378966 353.39715792 -136.33129883 354.51928711 C-133.97633957 357.04952079 -131.74343928 359.56323261 -129.60253906 362.28417969 C-126.45545455 365.85806701 -123.01376869 368.4829206 -119.16894531 371.26074219 C-117.80826823 372.26074219 -116.44759115 373.26074219 -115.08691406 374.26074219 C-114.41466797 374.7506665 -113.74242187 375.24059082 -113.04980469 375.74536133 C-110.25635684 377.79197733 -107.48975534 379.87346267 -104.72436523 381.95776367 C-99.9935581 385.49443795 -95.15010826 388.27658129 -89.85253906 390.85058594 C-87.85065499 391.83382424 -85.86454263 392.84955182 -83.89160156 393.88964844 C-67.38368321 402.49996291 -50.25462711 407.80795131 -31.98144531 411.26074219 C-31.04445801 411.44765625 -30.1074707 411.63457031 -29.14208984 411.82714844 C-18.99552821 413.64570325 -8.88107155 413.65825158 1.39355469 413.63574219 C2.32541595 413.63519836 3.25727722 413.63465454 4.21737671 413.63409424 C18.50146073 413.59576088 32.13164305 412.86015186 46.01855469 409.26074219 C46.91751465 409.03580078 47.81647461 408.81085938 48.74267578 408.57910156 C71.94216313 402.67865391 93.49831688 393.20376919 113.01855469 379.26074219 C114.06527344 378.53371094 115.11199219 377.80667969 116.19042969 377.05761719 C120.18735642 374.26698643 120.18735642 374.26698643 124.01855469 371.26074219 C124.01855469 370.60074219 124.01855469 369.94074219 124.01855469 369.26074219 C124.58058594 369.00292969 125.14261719 368.74511719 125.72167969 368.47949219 C128.28560048 367.11904442 130.47081834 365.53285257 132.76855469 363.76074219 C133.56777344 363.15230469 134.36699219 362.54386719 135.19042969 361.91699219 C136.09535156 361.09714844 136.09535156 361.09714844 137.01855469 360.26074219 C137.01855469 359.60074219 137.01855469 358.94074219 137.01855469 358.26074219 C137.59605469 358.03386719 138.17355469 357.80699219 138.76855469 357.57324219 C141.61595278 355.91225997 143.13922662 353.94549658 145.01855469 351.26074219 C145.01855469 350.60074219 145.01855469 349.94074219 145.01855469 349.26074219 C146.00855469 348.93074219 146.99855469 348.60074219 148.01855469 348.26074219 C149.51104608 346.74230072 149.51104608 346.74230072 150.90917969 344.83105469 C151.45082764 344.12287598 151.99247559 343.41469727 152.55053711 342.68505859 C153.40095581 341.54689697 153.40095581 341.54689697 154.26855469 340.38574219 C154.84903564 339.61794434 155.4295166 338.85014648 156.02758789 338.05908203 C160.34129258 332.29983057 164.2973532 326.42076188 168.01855469 320.26074219 C168.67855469 319.27074219 169.33855469 318.28074219 170.01855469 317.26074219 C170.01855469 316.27074219 170.01855469 315.28074219 170.01855469 314.26074219 C170.67855469 314.26074219 171.33855469 314.26074219 172.01855469 314.26074219 C195.75799799 268.15566596 201.94301204 214.88273558 186.28759766 165.17895508 C178.83350266 142.46128799 168.18722598 120.12216246 152.01855469 102.26074219 C151.22191406 101.36871094 150.42527344 100.47667969 149.60449219 99.55761719 C148.09894463 97.8804274 146.58573206 96.21005379 145.06152344 94.54980469 C143.01855469 92.26074219 143.01855469 92.26074219 140.88183594 89.47167969 C139.95951172 88.37726563 139.95951172 88.37726563 139.01855469 87.26074219 C138.35855469 87.26074219 137.69855469 87.26074219 137.01855469 87.26074219 C137.01855469 86.60074219 137.01855469 85.94074219 137.01855469 85.26074219 C106.53406034 54.03136408 59.54116037 33.10669096 16.01855469 32.26074219 C15.15810547 32.24027832 14.29765625 32.21981445 13.41113281 32.19873047 C-8.99200422 31.73360014 -30.35098173 33.18646731 -51.98144531 39.26074219 Z "
		fill="#FAC73C" transform="translate(243.9814453125,19.7392578125)" />
	<path
		d="M0 0 C3.20051125 1.65801432 3.69785214 4.69029184 4.83984375 7.953125 C5.52734375 10.890625 5.52734375 10.890625 5.83984375 12.953125 C6.46310547 13.04053955 7.08636719 13.1279541 7.72851562 13.21801758 C9.83984375 13.953125 9.83984375 13.953125 10.87304688 15.58862305 C11.24333008 16.64110229 11.24333008 16.64110229 11.62109375 17.71484375 C11.90364014 18.49657959 12.18618652 19.27831543 12.47729492 20.08374023 C12.76193604 20.92751221 13.04657715 21.77128418 13.33984375 22.640625 C13.64317627 23.50695557 13.94650879 24.37328613 14.2590332 25.26586914 C33.81861877 81.8416696 31.27138568 143.99997638 5.68359375 198.265625 C3.73037837 202.25310203 1.56741315 206.07731114 -0.81640625 209.82421875 C-2.10542218 211.86640968 -3.22832534 213.93940345 -4.34765625 216.078125 C-8.02769917 222.80872982 -12.60623325 229.01226165 -17.00268555 235.28662109 C-18.07406519 236.82917276 -19.11836489 238.39043797 -20.16015625 239.953125 C-20.82015625 239.953125 -21.48015625 239.953125 -22.16015625 239.953125 C-22.34578125 240.613125 -22.53140625 241.273125 -22.72265625 241.953125 C-24.76824399 246.22217768 -27.73200268 249.69476206 -31.16015625 252.953125 C-31.82015625 252.953125 -32.48015625 252.953125 -33.16015625 252.953125 C-33.16015625 253.613125 -33.16015625 254.273125 -33.16015625 254.953125 C-33.82015625 254.953125 -34.48015625 254.953125 -35.16015625 254.953125 C-35.36640625 255.51 -35.57265625 256.066875 -35.78515625 256.640625 C-37.12862378 258.90009311 -38.21173327 259.9529906 -40.22265625 261.578125 C-43.16840338 263.62431897 -43.16840338 263.62431897 -44.16015625 265.953125 C-44.82015625 265.953125 -45.48015625 265.953125 -46.16015625 265.953125 C-46.16015625 266.613125 -46.16015625 267.273125 -46.16015625 267.953125 C-47.89407576 269.55946515 -49.69824725 271.0906537 -51.53515625 272.578125 C-52.53289062 273.39539063 -53.530625 274.21265625 -54.55859375 275.0546875 C-57.16015625 276.953125 -57.16015625 276.953125 -59.16015625 276.953125 C-59.16015625 277.613125 -59.16015625 278.273125 -59.16015625 278.953125 C-64.57192096 282.953125 -64.57192096 282.953125 -67.16015625 282.953125 C-67.16015625 283.613125 -67.16015625 284.273125 -67.16015625 284.953125 C-69.31921163 286.504291 -71.46746033 287.92976644 -73.72265625 289.328125 C-74.33173828 289.71484375 -74.94082031 290.1015625 -75.56835938 290.5 C-77.42187258 291.66898822 -79.28752648 292.81504119 -81.16015625 293.953125 C-81.79421387 294.34274414 -82.42827148 294.73236328 -83.08154297 295.13378906 C-87.80237817 297.953125 -87.80237817 297.953125 -91.16015625 297.953125 C-91.16015625 298.613125 -91.16015625 299.273125 -91.16015625 299.953125 C-124.30105303 315.61636448 -158.18444318 326.40158339 -195.09594727 326.21386719 C-197.59220738 326.2031484 -200.08774584 326.21383533 -202.58398438 326.2265625 C-216.21397439 326.2387955 -230.3548375 326.0752525 -243.16015625 320.953125 C-241.80779048 318.01433016 -240.26072966 315.66079589 -238.16015625 313.203125 C-237.64453125 312.58953125 -237.12890625 311.9759375 -236.59765625 311.34375 C-235.16015625 309.953125 -235.16015625 309.953125 -233.16015625 309.953125 C-233.16015625 309.293125 -233.16015625 308.633125 -233.16015625 307.953125 C-231.51012797 306.59925564 -229.84271755 305.26634358 -228.16015625 303.953125 C-227.83015625 303.293125 -227.50015625 302.633125 -227.16015625 301.953125 C-226.50015625 301.953125 -225.84015625 301.953125 -225.16015625 301.953125 C-225.16015625 301.293125 -225.16015625 300.633125 -225.16015625 299.953125 C-223.78515625 298.328125 -223.78515625 298.328125 -222.16015625 296.953125 C-221.50015625 296.953125 -220.84015625 296.953125 -220.16015625 296.953125 C-219.85078125 296.31375 -219.54140625 295.674375 -219.22265625 295.015625 C-218.16015625 292.953125 -218.16015625 292.953125 -217.16015625 291.953125 C-214.6190477 291.84176702 -212.10079238 291.79077286 -209.55859375 291.77734375 C-207.94847079 291.7574884 -206.33836315 291.7363596 -204.72827148 291.71411133 C-203.88029999 291.70296295 -203.03232849 291.69181458 -202.15866089 291.68032837 C-158.39635816 291.01804219 -116.23889948 279.37670919 -81.90234375 251.203125 C-80.16015625 249.953125 -80.16015625 249.953125 -78.16015625 249.953125 C-78.16015625 249.293125 -78.16015625 248.633125 -78.16015625 247.953125 C-76.078125 246.04296875 -76.078125 246.04296875 -73.34765625 243.890625 C-72.45433594 243.17777344 -71.56101562 242.46492187 -70.640625 241.73046875 C-68.16015625 239.953125 -68.16015625 239.953125 -65.16015625 238.953125 C-65.16015625 238.293125 -65.16015625 237.633125 -65.16015625 236.953125 C-63.53426417 235.24665774 -61.85976978 233.58618024 -60.16015625 231.953125 C-49.92712655 221.37612791 -36.87341051 207.09288778 -32.16015625 192.953125 C-31.50015625 192.953125 -30.84015625 192.953125 -30.16015625 192.953125 C-29.88429688 192.07269531 -29.6084375 191.19226563 -29.32421875 190.28515625 C-28.25707309 187.23054132 -26.99424482 184.52212115 -25.53515625 181.640625 C-3.0457115 133.56736472 -3.99498058 80.5550825 -21.30957031 31.37597656 C-22.29160189 28.57870867 -23.23412776 25.7693972 -24.16015625 22.953125 C-23.20109375 22.0559375 -23.20109375 22.0559375 -22.22265625 21.140625 C-19.95705236 19.04502163 -19.95705236 19.04502163 -19.16015625 15.953125 C-17.62890625 14.4453125 -17.62890625 14.4453125 -15.66015625 12.828125 C-11.52175452 9.35960844 -7.87991335 5.5603414 -4.23828125 1.578125 C-2.16015625 -0.046875 -2.16015625 -0.046875 0 0 Z "
		fill="#F6B930" transform="translate(446.16015625,141.046875)" />
	<path
		d="M0 0 C0.69834961 0.2057666 1.39669922 0.4115332 2.11621094 0.62353516 C22.11621781 6.67351321 41.43136493 16.28809007 58 29 C58.6300293 29.47888672 59.26005859 29.95777344 59.90917969 30.45117188 C63.99401109 33.56914252 68.01158632 36.75973637 72 40 C72.80050781 40.64453125 73.60101563 41.2890625 74.42578125 41.953125 C75.99564809 43.2492876 77.50817222 44.61473134 79 46 C79 46.66 79 47.32 79 48 C79.59554688 48.26039062 80.19109375 48.52078125 80.8046875 48.7890625 C83.15893043 50.08766625 84.40351697 51.32479156 86.125 53.375 C86.73085938 54.09558594 87.33671875 54.81617188 87.9609375 55.55859375 C88.63382812 56.36425781 89.30671875 57.16992188 90 58 C90.75539063 58.85722656 91.51078125 59.71445313 92.2890625 60.59765625 C116.24594056 88.24313299 136.29945279 128.67682821 135 166 C134.67 166 134.34 166 134 166 C133.81993408 165.11199707 133.81993408 165.11199707 133.63623047 164.20605469 C128.2978984 138.14213801 121.57908725 112.95077397 106.14453125 90.79296875 C105 89 105 89 105 87 C104.34 87 103.68 87 103 87 C103 85.68 103 84.36 103 83 C102.34 83 101.68 83 101 83 C100 81.33333333 99 79.66666667 98 78 C97.113125 77.113125 96.22625 76.22625 95.3125 75.3125 C94.549375 74.549375 93.78625 73.78625 93 73 C93 72.34 93 71.68 93 71 C92.34 71 91.68 71 91 71 C90.6596875 70.1646875 90.6596875 70.1646875 90.3125 69.3125 C88.62622733 66.34144815 86.469646 64.35477875 84 62 C82.2958946 60.37163262 80.61974559 58.71230248 79 57 C79 56.34 79 55.68 79 55 C78.19755859 54.68675781 78.19755859 54.68675781 77.37890625 54.3671875 C74.73764564 52.84922163 72.78562925 50.95103882 70.63574219 48.81079102 C62.60372068 40.83765869 53.74160749 34.98137382 44.04248047 29.22167969 C42.38694547 28.23144575 40.75411874 27.20331403 39.12890625 26.1640625 C23.69210432 16.32407746 6.63827164 12.16991355 -11 8 C-11.81718506 7.80116211 -12.63437012 7.60232422 -13.47631836 7.39746094 C-18.85106169 6.13143377 -24.19309476 5.39768834 -29.6875 4.875 C-30.56180664 4.79080811 -31.43611328 4.70661621 -32.33691406 4.61987305 C-39.57934772 3.96358568 -46.72880303 3.73377769 -54 4 C-55.27101562 4.04125 -56.54203125 4.0825 -57.8515625 4.125 C-81.64441129 5.11709604 -106.75602009 11.20485483 -128 22 C-128.71510742 22.35884277 -129.43021484 22.71768555 -130.16699219 23.08740234 C-137.86661975 26.97709335 -145.42493998 30.94286273 -152.43359375 36.00390625 C-154 37 -154 37 -156 37 C-156 37.66 -156 38.32 -156 39 C-157.34476425 39.88471332 -158.69274605 40.76470203 -160.05078125 41.62890625 C-164.36774007 44.6654845 -168.125415 48.43003754 -172 52 C-173.03686979 52.9332821 -174.07465986 53.86554259 -175.11328125 54.796875 C-190.4184202 68.59598458 -203.75894838 83.40180314 -213 102 C-213.33354492 102.64469238 -213.66708984 103.28938477 -214.01074219 103.95361328 C-224.52607326 124.32996753 -229.96972127 145.33962728 -233 168 C-233.103125 168.73549072 -233.20625 169.47098145 -233.3125 170.22875977 C-235.71158104 189.02513127 -234.39176395 208.42570646 -231 227 C-230.86078125 227.79051758 -230.7215625 228.58103516 -230.578125 229.39550781 C-225.12271742 259.53916032 -209.575572 288.68816276 -188.72265625 310.93359375 C-187 313 -187 313 -187 315 C-186.34 315 -185.68 315 -185 315 C-183.37890625 316.64453125 -183.37890625 316.64453125 -181.5625 318.8125 C-177.527713 323.93601003 -177.527713 323.93601003 -172 327 C-171.195625 327.99 -170.39125 328.98 -169.5625 330 C-163.61253886 337.1932366 -155.46242373 342.48947131 -147.23828125 346.76953125 C-144.74941526 348.13775601 -142.46944953 349.70991929 -140.125 351.3125 C-129.19249118 358.36473808 -116.25983084 362.81237239 -104 367 C-104 367.33 -104 367.66 -104 368 C-110.09095091 367.45319873 -115.29285583 366.10136016 -121 363.9375 C-121.82306641 363.62949463 -122.64613281 363.32148926 -123.49414062 363.00415039 C-131.00524274 360.12388269 -138.1648121 356.69503803 -145.26318359 352.92138672 C-146.85086592 352.07911611 -148.45028817 351.25907173 -150.05078125 350.44140625 C-156.19759318 347.23323991 -161.77127284 343.52738529 -167.27587891 339.31640625 C-168.55524721 338.33957902 -169.83956049 337.36922114 -171.12646484 336.40234375 C-173.50870264 334.61153392 -175.88032412 332.80739214 -178.25 331 C-179.00676025 330.43087891 -179.76352051 329.86175781 -180.54321289 329.27539062 C-184.98052801 325.8553969 -188.71186998 322.2811874 -192.31152344 317.99072266 C-193.97634716 316.02788682 -195.70970713 314.17272849 -197.5 312.32421875 C-203.45273819 306.15401366 -209.01762154 300.20975497 -213.375 292.76953125 C-214.8768735 290.20984781 -216.5014702 287.77188976 -218.17285156 285.32104492 C-238.24186699 255.4539819 -247.46669119 219.67945089 -247.375 184 C-247.37445618 183.19595734 -247.37391235 182.39191467 -247.37335205 181.56350708 C-247.30828937 160.52041448 -243.94697144 140.87856328 -237 121 C-236.67902344 120.07832031 -236.35804688 119.15664062 -236.02734375 118.20703125 C-229.53719775 99.92110658 -220.98154429 83.3199135 -209 68 C-208.52208008 67.35796631 -208.04416016 66.71593262 -207.55175781 66.05444336 C-178.60592561 27.68899337 -132.7905572 1.47863831 -85.3125 -5.44140625 C-57.06209351 -9.2342849 -27.35327532 -8.19206826 0 0 Z "
		fill="#CB801A" transform="translate(302,59)" />
	<path
		d="M0 0 C18.81 0 37.62 0 57 0 C57 18.45072115 57 18.45072115 55.625 27.375 C55.49867188 28.26832031 55.37234375 29.16164063 55.2421875 30.08203125 C54.36887027 36.09918696 53.2476733 42.04992773 52 48 C34.27650494 51.81817727 18.18670426 54 0 54 C0 36.18 0 18.36 0 0 Z "
		fill="#F6BA33" transform="translate(255,244)" />
	<path
		d="M0 0 C25.37844408 1.15356564 25.37844408 1.15356564 33.3125 2.4375 C34.55290039 2.62022461 34.55290039 2.62022461 35.81835938 2.80664062 C41.27375749 3.63503703 46.62499213 4.75463709 52 6 C52.65427137 9.4359477 53.29679914 12.87399815 53.9375 16.3125 C54.21110352 17.74819336 54.21110352 17.74819336 54.49023438 19.21289062 C56.6695938 30.98143152 57 41.88619159 57 54 C38.19 54 19.38 54 0 54 C0 36.18 0 18.36 0 0 Z "
		fill="#F6BA33" transform="translate(255,175)" />
	<path
		d="M0 0 C18.48 0 36.96 0 56 0 C56 17.82 56 35.64 56 54 C48.88727977 54 42.04344474 53.92339549 35 53.25 C34.11223877 53.16637207 33.22447754 53.08274414 32.30981445 52.99658203 C23.05252288 52.03816852 14.04929561 50.13046274 5 48 C0.42089064 31.88153506 0 16.95396681 0 0 Z "
		fill="#F6BA33" transform="translate(184,244)" />
	<path
		d="M0 0 C0 17.82 0 35.64 0 54 C-18.48 54 -36.96 54 -56 54 C-56 33.24699519 -56 33.24699519 -54.625 24.9375 C-54.49867188 24.09251953 -54.37234375 23.24753906 -54.2421875 22.37695312 C-53.39251843 16.85835253 -52.25977945 11.43896085 -51 6 C-41.60035578 3.56622576 -32.34814586 2.19866451 -22.6875 1.3125 C-21.38232422 1.18294922 -20.07714844 1.05339844 -18.73242188 0.91992188 C-12.41140985 0.31318177 -6.37787855 0 0 0 Z "
		fill="#F6BA33" transform="translate(240,175)" />
	<path
		d="M0 0 C4.86658604 1.53681664 9.61165841 3.21998345 14.33618164 5.15429688 C28.61491901 10.99766841 42.84781371 14.29948686 58 17 C60.27090186 17.41629303 62.54175283 17.83286404 64.8125 18.25 C66.20815363 18.50100127 67.60389649 18.75151319 69 19 C67.625 21.5 67.625 21.5 66 24 C65.34 24 64.68 24 64 24 C63.505 25.485 63.505 25.485 63 27 C62.34 27 61.68 27 61 27 C61 27.66 61 28.32 61 29 C60.34 29 59.68 29 59 29 C58.7525 29.61875 58.505 30.2375 58.25 30.875 C56.79371361 33.35068687 55.62187494 33.95125002 53 35 C53 35.66 53 36.32 53 37 C52.34 37 51.68 37 51 37 C50.73445313 37.58265625 50.46890625 38.1653125 50.1953125 38.765625 C48.96697004 41.06174228 47.59685061 42.80356018 45.875 44.75 C45.33617187 45.36359375 44.79734375 45.9771875 44.2421875 46.609375 C43.83226562 47.06828125 43.42234375 47.5271875 43 48 C43.66 48.33 44.32 48.66 45 49 C21.88496228 45.58874994 0.59916403 36.71065181 -20 26 C-21.99805164 24.99611274 -23.99776163 23.99551067 -26 23 C-27.33333333 22.33333333 -28.66666667 21.66666667 -30 21 C-30 20.34 -30 19.68 -30 19 C-30.87398437 18.83177734 -30.87398437 18.83177734 -31.765625 18.66015625 C-34.20310657 17.93999124 -35.7250586 16.95620605 -37.75 15.4375 C-38.36359375 14.98246094 -38.9771875 14.52742188 -39.609375 14.05859375 C-40.06828125 13.70925781 -40.5271875 13.35992187 -41 13 C-39 12 -39 12 -35.625 12.6875 C-31.97315872 14.0097184 -30.49740829 15.1326053 -28 18 C-27.34 18.33 -26.68 18.66 -26 19 C-26 19.66 -26 20.32 -26 21 C-25.401875 21.144375 -24.80375 21.28875 -24.1875 21.4375 C-22.43849596 21.8872439 -20.71322977 22.42892341 -19 23 C-18.7628125 22.43796875 -18.525625 21.8759375 -18.28125 21.296875 C-16.71052303 18.48105958 -14.78528536 16.52044584 -12.5 14.25 C-11.7059375 13.45078125 -10.911875 12.6515625 -10.09375 11.828125 C-8 10 -8 10 -6 10 C-6 9.34 -6 8.68 -6 8 C-4.33333333 6.33333333 -2.66666667 4.66666667 -1 3 C-0.67 2.01 -0.34 1.02 0 0 Z "
		fill="#FBCF48" transform="translate(160,414)" />
	<path
		d="M0 0 C0.66 0 1.32 0 2 0 C2 0.66 2 1.32 2 2 C2.66 2 3.32 2 4 2 C4 2.66 4 3.32 4 4 C4.598125 4.268125 5.19625 4.53625 5.8125 4.8125 C7.99847854 5.99917406 9.41332594 7.09599113 11 9 C11 9.66 11 10.32 11 11 C11.66 11 12.32 11 13 11 C16 14.46153846 16 14.46153846 16 17 C16.61875 17.226875 17.2375 17.45375 17.875 17.6875 C20.61410209 19.37929835 21.05024472 20.99244161 22 24 C22.66 24 23.32 24 24 24 C25.63429751 26.0944968 27.14167234 28.17782091 28.625 30.375 C29.04523438 30.97828125 29.46546875 31.5815625 29.8984375 32.203125 C33 36.73462865 33 36.73462865 33 39 C33.66 39 34.32 39 35 39 C36.12573242 40.50610352 36.12573242 40.50610352 37.35546875 42.62890625 C37.81010498 43.41015869 38.26474121 44.19141113 38.7331543 44.99633789 C39.45305542 46.26658813 39.45305542 46.26658813 40.1875 47.5625 C40.67710205 48.4177124 41.1667041 49.2729248 41.67114258 50.15405273 C53 70.19512371 53 70.19512371 53 75 C51.10546875 74.7734375 51.10546875 74.7734375 49 74 C47.98828125 72.0390625 47.98828125 72.0390625 47.3125 69.625 C47.08175781 68.83351563 46.85101563 68.04203125 46.61328125 67.2265625 C46.30970703 66.12441406 46.30970703 66.12441406 46 65 C45.67 64.01 45.34 63.02 45 62 C41.57673196 62.57895565 39.99326639 63.66184538 37.6171875 66.16015625 C36.70259766 67.1027832 36.70259766 67.1027832 35.76953125 68.06445312 C35.14433594 68.72380859 34.51914062 69.38316406 33.875 70.0625 C32.62696831 71.37026437 31.3745775 72.67388717 30.1171875 73.97265625 C29.56659668 74.55281494 29.01600586 75.13297363 28.44873047 75.73071289 C27 77 27 77 25 77 C24.505 78.98 24.505 78.98 24 81 C23.34 81 22.68 81 22 81 C21.505 82.485 21.505 82.485 21 84 C18.60157268 81.80440318 17.1242714 79.66235209 15.6171875 76.7890625 C15.17681152 75.96269287 14.73643555 75.13632324 14.28271484 74.28491211 C13.81816895 73.40714111 13.35362305 72.52937012 12.875 71.625 C6.09159994 59.07042967 -1.77149361 47.88658319 -11 37 C-10.1875 35.0625 -10.1875 35.0625 -9 33 C-7.515 32.505 -7.515 32.505 -6 32 C-6 31.34 -6 30.68 -6 30 C-5.34 30 -4.68 30 -4 30 C-3.773125 29.443125 -3.54625 28.88625 -3.3125 28.3125 C-1.62971908 25.34760028 0.56108512 23.383485 3 21 C7.41978298 16.79560468 7.41978298 16.79560468 9.3125 11.25 C8.08383737 8.62022378 8.08383737 8.62022378 4.5 7.5625 C3.345 7.046875 2.19 6.53125 1 6 C0.0625 2.8125 0.0625 2.8125 0 0 Z "
		fill="#FBCE48" transform="translate(402,80)" />
	<path
		d="M0 0 C0.99 0.495 0.99 0.495 2 1 C1.40703125 1.72574219 0.8140625 2.45148438 0.203125 3.19921875 C-9.28724316 15.26410168 -16.11502541 29.38574511 -20.89453125 43.9140625 C-21.25933594 44.93242187 -21.62414062 45.95078125 -22 47 C-22.35707031 48.05058594 -22.71414062 49.10117188 -23.08203125 50.18359375 C-25.89035049 54.30741895 -29.23701229 55.00419389 -33.875 56.4375 C-48.11595315 61.26028901 -60.41731095 68.34775913 -72 78 C-68.78373642 55.48615494 -50.35413415 32.53314625 -32.7890625 19.04296875 C-31.86867187 18.36878906 -30.94828125 17.69460937 -30 17 C-29.01773438 16.25363281 -28.03546875 15.50726563 -27.0234375 14.73828125 C-20.88476091 10.25232528 -14.66688989 6.6373773 -7.8125 3.375 C-7.06919434 3.01978271 -6.32588867 2.66456543 -5.56005859 2.29858398 C-3.73653512 1.4638785 -1.87066445 0.72290084 0 0 Z "
		fill="#F5B533" transform="translate(201,118)" />
	<path
		d="M0 0 C1.61511611 3.23023223 0.12948962 5.832863 -0.92578125 9.15625 C-2.779732 14.06416327 -5.31902343 18.50226754 -8 23 C-8.53753906 23.90878906 -9.07507813 24.81757813 -9.62890625 25.75390625 C-18.48694538 40.20216961 -29.75693925 51.57417423 -43 62 C-43.99386719 62.78310547 -43.99386719 62.78310547 -45.0078125 63.58203125 C-49.07807815 66.47910268 -53.58853881 68.67205214 -58 71 C-58.93585938 71.495 -59.87171875 71.99 -60.8359375 72.5 C-62.15464844 73.180625 -62.15464844 73.180625 -63.5 73.875 C-64.2940625 74.28492188 -65.088125 74.69484375 -65.90625 75.1171875 C-68 76 -68 76 -71 76 C-69.68091052 73.16263228 -68.18501834 70.86033804 -66.21875 68.43359375 C-62.57170761 63.6435311 -60.0497122 58.49655139 -57.5 53.0625 C-57.01208984 52.05703125 -56.52417969 51.0515625 -56.02148438 50.015625 C-53.82778184 45.39328525 -51.85142861 40.94169908 -50.625 35.96484375 C-48.00026789 25.34033545 -48.00026789 25.34033545 -43.99609375 22.65722656 C-39.22288428 20.34336019 -34.27318786 18.93406858 -29.15258789 17.61279297 C-23.59556437 16.03083436 -18.85880238 12.75105598 -14.0625 9.625 C-13.45003418 9.22869385 -12.83756836 8.8323877 -12.20654297 8.42407227 C-8.05502751 5.72431714 -3.98512946 2.94140508 0 0 Z "
		fill="#F5B533" transform="translate(365,279)" />
	<path
		d="M0 0 C-3.14393585 13.623722 -10.25107232 26.21365081 -19 37 C-19.64839844 37.81210937 -20.29679687 38.62421875 -20.96484375 39.4609375 C-27.52990732 47.28701328 -35.37835746 52.54190437 -45 56 C-45.66 56 -46.32 56 -47 56 C-47 39.17 -47 22.34 -47 5 C-40.8125 4.5978125 -40.8125 4.5978125 -34.5 4.1875 C-25.15413342 3.53852051 -16.09469063 2.58050432 -6.94140625 0.5859375 C-4 0 -4 0 0 0 Z "
		fill="#F6B934" transform="translate(302,308)" />
	<path
		d="M0 0 C13.05935928 1.86562275 21.93710975 8.47131421 29.9375 18.8125 C47 43.24134036 47 43.24134036 47 54 C42.12693604 53.50443417 37.32721698 52.89207586 32.5 52.0625 C21.75131779 50.35043445 10.84262205 49.81174711 0 49 C0 32.83 0 16.66 0 0 Z "
		fill="#F6B934" transform="translate(255,111)" />
	<path
		d="M0 0 C11.91158621 3.19060345 23.60040597 10.05637953 33 18 C33.63808594 18.52980469 34.27617187 19.05960938 34.93359375 19.60546875 C50.28072634 32.67895206 69.09035832 52.31799552 73 73 C72.505 74.485 72.505 74.485 72 76 C71.15179688 75.35933594 70.30359375 74.71867187 69.4296875 74.05859375 C60.11520996 67.13984278 50.55983799 60.87726933 39.328125 57.578125 C27.55841175 53.98968183 27.55841175 53.98968183 24.74902344 50.40283203 C22.73076527 46.54476562 21.71758939 42.40354159 20.64257812 38.20556641 C19.5329219 34.39681476 17.84114364 30.88018722 16.125 27.3125 C15.78936035 26.60585205 15.4537207 25.8992041 15.10791016 25.17114258 C10.81441448 16.31234608 5.4698015 8.16839825 0 0 Z "
		fill="#F5B533" transform="translate(293,118)" />
	<path
		d="M0 0 C0.52207031 0.35191406 1.04414063 0.70382812 1.58203125 1.06640625 C4.04830866 2.72066938 6.52406216 4.36023415 9 6 C9.81984375 6.55300781 10.6396875 7.10601562 11.484375 7.67578125 C16.78787617 11.17127066 22.22460623 14.29621075 27.875 17.1875 C28.55280518 17.53659424 29.23061035 17.88568848 29.92895508 18.24536133 C34.33093841 20.4219471 38.40801589 21.59410318 43.25 22.5625 C46.4375 23.47265625 46.4375 23.47265625 49 25 C50.64266433 28.42999511 51.31738346 31.83057818 52.01171875 35.53515625 C54.94573076 50.50700038 64.02492301 63.98849509 73 76 C69.27978538 77.24007154 67.94896195 76.28334008 64.55615234 74.60058594 C63.85699707 74.23739258 63.1578418 73.87419922 62.4375 73.5 C61.3539624 72.9436084 61.3539624 72.9436084 60.24853516 72.37597656 C31.3446499 57.25463315 11.96046672 31.81499628 0 2 C0 1.34 0 0.68 0 0 Z "
		fill="#F5B533" transform="translate(129,278)" />
	<path
		d="M0 0 C4.35116905 0.52864671 8.69316101 1.09147686 13.03125 1.71875 C13.92585937 1.84636719 14.82046875 1.97398437 15.7421875 2.10546875 C17.55011121 2.36410939 19.35743582 2.62698096 21.1640625 2.89453125 C29.48780127 4.06839185 37.51943273 4.46996455 46 5 C46 21.83 46 38.66 46 56 C35.848 52.616 35.848 52.616 31.625 49.5 C30.40683594 48.61828125 30.40683594 48.61828125 29.1640625 47.71875 C27.28653873 46.22757589 25.56396426 44.81621656 24 43 C24 42.34 24 41.68 24 41 C23.34 41 22.68 41 22 41 C11.1923386 29.51913411 3.62435721 15.3657644 0 0 Z "
		fill="#F6BA34" transform="translate(194,308)" />
	<path
		d="M0 0 C0 16.17 0 32.34 0 49 C-13.1875 50.375 -13.1875 50.375 -17.25854492 50.79443359 C-24.27614555 51.53668474 -31.22943553 52.44731779 -38.1887207 53.61962891 C-40.8349234 53.97766484 -43.33412788 54.07021076 -46 54 C-42.70254467 39.71102691 -35.21516588 27.22574752 -26 16 C-25.41476563 15.23945312 -24.82953125 14.47890625 -24.2265625 13.6953125 C-18.44680411 6.50453328 -9.48632928 0 0 0 Z "
		fill="#F6BA33" transform="translate(240,111)" />
	<path
		d="M0 0 C15.18 0 30.36 0 46 0 C43.12031084 8.63906747 40.78126759 12.5367317 35 19 C34.40316406 19.6909375 33.80632812 20.381875 33.19140625 21.09375 C23.7090082 31.37144595 11.09393558 37.62964192 -2 42 C-2.66 42 -3.32 42 -4 42 C-3.51850892 35.90533661 -2.86108532 29.8658013 -2 23.8125 C-0.98867387 15.91151461 -0.49687095 7.94993522 0 0 Z "
		fill="#F5B933" transform="translate(327,244)" />
	<path
		d="M0 0 C15.51 0 31.02 0 47 0 C47.28875 3.774375 47.5775 7.54875 47.875 11.4375 C48.67525512 21.66015695 49.68520033 31.83128337 51 42 C32.12851128 37.24037674 13.7939403 25.37734167 3.4375 8.625 C1.69965888 5.60223952 0.86338398 3.45353592 0 0 Z "
		fill="#F6B934" transform="translate(122,244)" />
	<path
		d="M0 0 C21.28557361 6.46794362 39.29848431 19.20547865 50 39 C50 39.99 50 40.98 50 42 C34.82 42 19.64 42 4 42 C3.525625 37.111875 3.05125 32.22375 2.5625 27.1875 C2.41498291 25.66922607 2.26746582 24.15095215 2.11547852 22.58666992 C1.38609728 15.05990863 0.67163956 7.53217246 0 0 Z "
		fill="#F6B934" transform="translate(323,187)" />
	<path
		d="M0 0 C-1.32 13.86 -2.64 27.72 -4 42 C-19.18 42 -34.36 42 -50 42 C-48.7338069 35.6690345 -45.85746233 32.05807811 -42 27 C-41.19175781 25.93845703 -41.19175781 25.93845703 -40.3671875 24.85546875 C-33.6601575 16.64178709 -24.79967324 11.30877223 -15.6875 6.125 C-14.6831189 5.5527771 -14.6831189 5.5527771 -13.65844727 4.96899414 C-4.69549425 0 -4.69549425 0 0 0 Z "
		fill="#F6BA34" transform="translate(173,187)" />
	<path
		d="M0 0 C3.01420194 0.0107267 6.02780812 0.0000393 9.04199219 -0.01269531 C38.57389007 -0.03570089 38.57389007 -0.03570089 45.01855469 4.26074219 C44.39327881 4.23044922 43.76800293 4.20015625 43.1237793 4.16894531 C0.85844632 1.22573507 0.85844632 1.22573507 -40.82519531 6.56152344 C-46.47112232 7.81229192 -52.21711139 8.01011897 -57.98144531 8.26074219 C-54.18223273 5.7279338 -50.71914923 5.16341327 -46.29394531 4.26074219 C-45.53533203 4.09574219 -44.77671875 3.93074219 -43.99511719 3.76074219 C-29.30282824 0.70034677 -14.9625695 -0.06321528 0 0 Z "
		fill="#EFC557" transform="translate(243.9814453125,19.7392578125)" />
	<path
		d="M0 0 C0.33 0 0.66 0 1 0 C1.12036664 5.77759884 0.8320582 11.27959989 0 17 C-0.66 17 -1.32 17 -2 17 C-2.05534912 17.6612085 -2.11069824 18.32241699 -2.16772461 19.00366211 C-2.41965715 21.9820238 -2.67848502 24.95974625 -2.9375 27.9375 C-3.06801758 29.49887695 -3.06801758 29.49887695 -3.20117188 31.09179688 C-3.28818359 32.08115234 -3.37519531 33.07050781 -3.46484375 34.08984375 C-3.543396 35.00628662 -3.62194824 35.92272949 -3.70288086 36.86694336 C-4 39 -4 39 -5 40 C-5.09381302 41.84118029 -5.11743954 43.68597641 -5.11352539 45.52954102 C-5.11344986 46.71068985 -5.11337433 47.89183868 -5.11329651 49.10877991 C-5.10813522 50.3941716 -5.10297394 51.67956329 -5.09765625 53.00390625 C-5.0962413 54.31205795 -5.09482635 55.62020966 -5.09336853 56.96800232 C-5.0895441 60.45162859 -5.07971446 63.93521339 -5.06866455 67.41882324 C-5.05844882 70.97126708 -5.05387056 74.52371759 -5.04882812 78.07617188 C-5.03809212 85.05079832 -5.0210166 92.02539717 -5 99 C-6.48869405 96.14132693 -7.31039035 93.9358853 -7.6328125 90.71875 C-7.71692383 89.88730469 -7.80103516 89.05585938 -7.88769531 88.19921875 C-7.96600586 87.30847656 -8.04431641 86.41773438 -8.125 85.5 C-8.2084668 84.56800781 -8.29193359 83.63601563 -8.37792969 82.67578125 C-10.69049449 54.69846671 -7.38984444 27.04011259 0 0 Z "
		fill="#F2D57E" transform="translate(31,179)" />
	<path
		d="M0 0 C2.97 0 5.94 0 9 0 C6.43740528 1.70839648 4.82259101 2.49714125 1.96484375 3.3671875 C1.1646582 3.61114258 0.36447266 3.85509766 -0.45996094 4.10644531 C-1.31879883 4.36006836 -2.17763672 4.61369141 -3.0625 4.875 C-3.95356445 5.13893555 -4.84462891 5.40287109 -5.76269531 5.67480469 C-11.5564188 7.35976642 -17.36671143 8.91029957 -23.25 10.25 C-23.89590088 10.40065918 -24.54180176 10.55131836 -25.20727539 10.70654297 C-38.38311062 13.5721864 -51.50115751 14.32906502 -64.93579102 14.26074219 C-67.43205113 14.2500234 -69.92758959 14.26071033 -72.42382812 14.2734375 C-80.51005006 14.28099128 -88.49527437 14.01248339 -96.53515625 13.109375 C-97.60049843 12.99314789 -97.60049843 12.99314789 -98.68736267 12.87457275 C-102.1552334 12.43765973 -104.03502018 11.97665322 -107 10 C-106.34 10 -105.68 10 -105 10 C-105 9.34 -105 8.68 -105 8 C-105.99 7.67 -106.98 7.34 -108 7 C-106.68 7 -105.36 7 -104 7 C-103.67 7.66 -103.34 8.32 -103 9 C-100.33692569 9.45121857 -97.74463442 9.79590928 -95.0625 10.0625 C-87.22772277 10.88613861 -87.22772277 10.88613861 -85 12 C-82.49979465 12.12350389 -80.02872038 12.18843794 -77.52734375 12.203125 C-76.77143448 12.20882507 -76.01552521 12.21452515 -75.23670959 12.22039795 C-73.62518717 12.22986479 -72.01364525 12.23638859 -70.40209961 12.24023438 C-67.99880845 12.24975707 -65.59644275 12.28068096 -63.19335938 12.3125 C-51.12066793 12.39413645 -39.70801706 11.00855643 -28 8 C-27.13375 7.835 -26.2675 7.67 -25.375 7.5 C-22.99712092 7.10412687 -22.99712092 7.10412687 -21 6 C-19.45976004 5.93049459 -17.91665012 5.91547643 -16.375 5.9375 C-15.14910156 5.95103516 -15.14910156 5.95103516 -13.8984375 5.96484375 C-13.27195312 5.97644531 -12.64546875 5.98804688 -12 6 C-12 5.34 -12 4.68 -12 4 C-7.8803623 2.70756464 -4.33168317 1.73747375 0 2 C0 1.34 0 0.68 0 0 Z "
		fill="#F1D386" transform="translate(316,453)" />
	<path
		d="M0 0 C2 3 2 3 2 5 C2.99 5 3.98 5 5 5 C5.66 6.98 6.32 8.96 7 11 C7.66 11 8.32 11 9 11 C9.33 11.99 9.66 12.98 10 14 C11.32467746 14.6837045 12.65863633 15.34964186 14 16 C16 19 16 19 16 22 C16.66 22 17.32 22 18 22 C18.33 21.01 18.66 20.02 19 19 C19.66 19 20.32 19 21 19 C21.33 21.97 21.66 24.94 22 28 C22.99 28 23.98 28 25 28 C25.33 28.66 25.66 29.32 26 30 C28.02463255 30.65213292 28.02463255 30.65213292 30 31 C30 32.32 30 33.64 30 35 C30.66 35 31.32 35 32 35 C32 35.99 32 36.98 32 38 C32.53625 38.061875 33.0725 38.12375 33.625 38.1875 C37.17026157 39.40035264 39.2592392 41.44610926 42 44 C42 44.66 42 45.32 42 46 C42.639375 46.268125 43.27875 46.53625 43.9375 46.8125 C46 48 46 48 47 51 C45.35 50.34 43.7 49.68 42 49 C42 48.34 42 47.68 42 47 C41.38125 46.690625 40.7625 46.38125 40.125 46.0625 C38.75 45.375 37.375 44.6875 36 44 C36 43.34 36 42.68 36 42 C35.4227417 41.74726318 34.8454834 41.49452637 34.25073242 41.23413086 C31.7269348 39.85027177 30.02576674 38.28459122 27.98828125 36.25390625 C27.23417969 35.50391357 26.48007813 34.7539209 25.703125 33.98120117 C24.91421875 33.18302979 24.1253125 32.3848584 23.3125 31.5625 C22.50683594 30.75079346 21.70117188 29.93908691 20.87109375 29.1027832 C5.72822024 13.70722218 5.72822024 13.70722218 3 6 C2.34 6 1.68 6 1 6 C0.34 4.35 -0.32 2.7 -1 1 C-0.67 0.67 -0.34 0.34 0 0 Z "
		fill="#F4D872" transform="translate(64,369)" />
	<path
		d="M0 0 C0.33 0 0.66 0 1 0 C-0.64911446 23.6562626 -8.06551973 47.01001697 -19 68 C-20.43088528 65.13822943 -19.59991697 63.06624227 -19 60 C-18.34 60 -17.68 60 -17 60 C-17 58.35 -17 56.7 -17 55 C-17.66 55 -18.32 55 -19 55 C-19 54.34 -19 53.68 -19 53 C-18.01 53 -17.02 53 -16 53 C-14.68 50.03 -13.36 47.06 -12 44 C-11.34 44 -10.68 44 -10 44 C-9.67 40.37 -9.34 36.74 -9 33 C-8.34 33 -7.68 33 -7 33 C-6.01156705 28.26715048 -5.08145089 23.52816463 -4.26953125 18.76171875 C-4.14231689 18.01849365 -4.01510254 17.27526855 -3.8840332 16.50952148 C-3.63244204 15.02924419 -3.38473696 13.54829994 -3.14135742 12.06665039 C-2.42912902 7.88647324 -1.45915307 4.00009205 0 0 Z "
		fill="#F2CF78" transform="translate(470,272)" />
	<path
		d="M0 0 C6.25812664 -0.05004653 12.51613263 -0.08602039 18.77441406 -0.10986328 C20.89617954 -0.1198201 23.01793167 -0.13339042 25.13964844 -0.15087891 C58.37355668 -0.41762888 58.37355668 -0.41762888 65 4 C52.13 3.505 52.13 3.505 39 3 C39 2.67 39 2.34 39 2 C19.695 1.505 19.695 1.505 0 1 C0 0.67 0 0.34 0 0 Z "
		fill="#F9E190" transform="translate(224,20)" />
	<path
		d="M0 0 C4.99117365 -0.17167094 9.13376329 0.34457692 13.9375 1.6875 C14.88508179 1.94998535 14.88508179 1.94998535 15.85180664 2.21777344 C23.28604316 4.30617522 30.64752405 6.64257013 38 9 C38 9.33 38 9.66 38 10 C36.02 10.33 34.04 10.66 32 11 C32 10.34 32 9.68 32 9 C30.14375 8.814375 30.14375 8.814375 28.25 8.625 C25.88234204 8.3882342 24.19387627 8.09752328 22.05859375 7.0234375 C19.63716862 5.81961704 17.47898456 5.430947 14.8125 5 C9.82943616 4.15609403 4.92562508 3.13047133 0 2 C0 1.34 0 0.68 0 0 Z M-2 2 C-1.34 2 -0.68 2 0 2 C-0.33 2.66 -0.66 3.32 -1 4 C-1.33 3.34 -1.66 2.68 -2 2 Z "
		fill="#F8DC8A" transform="translate(290,24)" />
	<path
		d="M0 0 C1.485 0.99 1.485 0.99 3 2 C2.67 2.66 2.34 3.32 2 4 C2.66 4 3.32 4 4 4 C4 5.32 4 6.64 4 8 C4.66 8 5.32 8 6 8 C6 8.99 6 9.98 6 11 C6.66 11 7.32 11 8 11 C8.2475 11.7425 8.495 12.485 8.75 13.25 C9.83906842 16.07315072 9.83906842 16.07315072 12 18 C14.26087126 20.26087126 15.15529974 21.9283627 16 25 C15.625 27.3125 15.625 27.3125 15 29 C10.92246026 25.31364129 8.87468245 20.44209638 6.375 15.625 C5.87226562 14.67882812 5.36953125 13.73265625 4.8515625 12.7578125 C4.37203125 11.84 3.8925 10.9221875 3.3984375 9.9765625 C2.96192871 9.14205566 2.52541992 8.30754883 2.07568359 7.44775391 C0.98221355 4.95952634 0.42808099 2.676551 0 0 Z "
		fill="#F5E092" transform="translate(40,329)" />
	<path
		d="M0 0 C7.10818844 1.86204963 13.361753 4.43923027 19.8125 7.9375 C20.63169922 8.36740234 21.45089844 8.79730469 22.29492188 9.24023438 C26.53686668 11.50374986 30.35928236 13.81714137 34 17 C30.87709365 16.51421457 28.00419641 16.0013988 25 15 C25 14.01 25 13.02 25 12 C23.948125 11.896875 22.89625 11.79375 21.8125 11.6875 C18.11371887 11.02050668 15.97013189 10.25009992 13 8 C13 7.34 13 6.68 13 6 C11.68 6 10.36 6 9 6 C9 5.34 9 4.68 9 4 C6.03 3.67 3.06 3.34 0 3 C0 2.01 0 1.02 0 0 Z "
		fill="#F5E18F" transform="translate(333,36)" />
	<path
		d="M0 0 C15.18 0 30.36 0 46 0 C41.50056082 2.24971959 41.50056082 2.24971959 37.98168945 2.21118164 C37.20440994 2.20780289 36.42713043 2.20442413 35.626297 2.20094299 C34.7970018 2.18748337 33.9677066 2.17402374 33.11328125 2.16015625 C32.25566696 2.15495468 31.39805267 2.14975311 30.51445007 2.14439392 C27.78029314 2.12660378 25.0465134 2.09541676 22.3125 2.0625 C19.56781254 2.03492123 16.8231761 2.01022944 14.07841492 1.99131775 C12.37118289 1.97901742 10.6639798 1.96137234 8.9568634 1.93800354 C6.97120656 1.92111403 4.98522488 1.95527269 3 2 C1.26043342 3.73956658 1.62809614 6.1936622 1.4375 8.5625 C1.35371094 9.57441406 1.26992188 10.58632812 1.18359375 11.62890625 C1.12300781 12.41136719 1.06242187 13.19382812 1 14 C0.67 14 0.34 14 0 14 C0 9.38 0 4.76 0 0 Z "
		fill="#FCBB3E" transform="translate(327,244)" />
	<path
		d="M0 0 C2.31091497 3.46637245 3.71570542 7.06927755 5.1875 10.9375 C5.47302734 11.65357422 5.75855469 12.36964844 6.05273438 13.10742188 C7.48285089 16.86191268 8.24181125 19.16847387 7 23 C7 22.34 7 21.68 7 21 C5.02 21 3.04 21 1 21 C1 20.01 1 19.02 1 18 C1.99 18 2.98 18 4 18 C4 16.68 4 15.36 4 14 C3.34 14 2.68 14 2 14 C1.66179834 12.4176994 1.32964061 10.83410625 1 9.25 C0.814375 8.36828125 0.62875 7.4865625 0.4375 6.578125 C0 4 0 4 0 0 Z "
		fill="#F0CC6E" transform="translate(455,155)" />
	<path
		d="M0 0 C-1.11799986 1.33920838 -2.24461897 2.67122556 -3.375 4 C-4.31472656 5.11375 -4.31472656 5.11375 -5.2734375 6.25 C-6.12808594 7.11625 -6.12808594 7.11625 -7 8 C-7.66 8 -8.32 8 -9 8 C-9 8.66 -9 9.32 -9 10 C-9.66 10 -10.32 10 -11 10 C-11.268125 10.61875 -11.53625 11.2375 -11.8125 11.875 C-13 14 -13 14 -16 16 C-16 14.35 -16 12.7 -16 11 C-15.01 11 -14.02 11 -13 11 C-12.67 9.35 -12.34 7.7 -12 6 C-11.01 6 -10.02 6 -9 6 C-9 5.01 -9 4.02 -9 3 C-8.01 3 -7.02 3 -6 3 C-6.33 2.01 -6.66 1.02 -7 0 C-2.25 -1.125 -2.25 -1.125 0 0 Z "
		fill="#F3CF79" transform="translate(422,386)" />
	<path
		d="M0 0 C9.3911802 1.52506345 9.3911802 1.52506345 13 6 C13.66 6.33 14.32 6.66 15 7 C15 7.66 15 8.32 15 9 C15.5775 9.12375 16.155 9.2475 16.75 9.375 C19.02335767 10.00648824 20.9253529 10.88858191 23 12 C20.5332355 12.88336837 19.36140628 13.1312406 16.859375 12.22265625 C16.16328125 11.83980469 15.4671875 11.45695312 14.75 11.0625 C14.04359375 10.68222656 13.3371875 10.30195313 12.609375 9.91015625 C12.07828125 9.60980469 11.5471875 9.30945313 11 9 C11 8.34 11 7.68 11 7 C10.41734375 6.8865625 9.8346875 6.773125 9.234375 6.65625 C6.81581805 5.9459046 5.27328061 4.98719771 3.25 3.5 C2.63640625 3.0565625 2.0228125 2.613125 1.390625 2.15625 C0.93171875 1.7746875 0.4728125 1.393125 0 1 C0 0.67 0 0.34 0 0 Z "
		fill="#F4D67F" transform="translate(119,426)" />
	<path
		d="M0 0 C0.33 0 0.66 0 1 0 C1.12036664 5.77759884 0.8320582 11.27959989 0 17 C-0.66 17 -1.32 17 -2 17 C-2.12375 18.299375 -2.2475 19.59875 -2.375 20.9375 C-2.5859375 23.15234375 -2.5859375 23.15234375 -3 25 C-3.66 25.33 -4.32 25.66 -5 26 C-4.35343144 17.10968231 -2.12977433 8.62806252 0 0 Z "
		fill="#F5D582" transform="translate(31,179)" />
	<path
		d="M0 0 C6.09304549 3.18756546 11.61114807 6.72709561 17 11 C16.01 11.33 15.02 11.66 14 12 C14 11.34 14 10.68 14 10 C13.38511719 9.96261719 12.77023437 9.92523438 12.13671875 9.88671875 C11.32847656 9.82097656 10.52023437 9.75523438 9.6875 9.6875 C8.88699219 9.62949219 8.08648437 9.57148437 7.26171875 9.51171875 C4.5643908 8.90144248 3.59071353 8.24964988 2 6 C2 4.68 2 3.36 2 2 C1.34 2 0.68 2 0 2 C0 1.34 0 0.68 0 0 Z "
		fill="#FAD567" transform="translate(369,54)" />
	<path
		d="M0 0 C-8.42034227 5.61356152 -20.18560361 5.57328711 -30 6 C-26.08791347 3.39194231 -22.37032093 2.81368166 -17.8125 1.875 C-16.5740332 1.60236328 -16.5740332 1.60236328 -15.31054688 1.32421875 C-10.0974792 0.23148747 -5.32437807 -0.18423454 0 0 Z "
		fill="#F6DF91" transform="translate(216,22)" />
	<path
		d="M0 0 C5.19525146 1.3606611 8.17555757 3.35767388 12 7 C12 7.66 12 8.32 12 9 C12.639375 9.268125 13.27875 9.53625 13.9375 9.8125 C16 11 16 11 17 14 C14.525 13.01 14.525 13.01 12 12 C12 11.34 12 10.68 12 10 C11.38125 9.690625 10.7625 9.38125 10.125 9.0625 C8.75 8.375 7.375 7.6875 6 7 C6 6.34 6 5.68 6 5 C5.38125 4.731875 4.7625 4.46375 4.125 4.1875 C2 3 2 3 0 0 Z "
		fill="#F6E091" transform="translate(94,406)" />
	<path
		d="M0 0 C1.32 0 2.64 0 4 0 C4.33 0.66 4.66 1.32 5 2 C7.66124985 2.42438536 10.25929915 2.75000372 12.9375 3 C20.73130393 3.73130393 20.73130393 3.73130393 23 6 C15.47280398 6.25515919 8.41148455 5.28297723 1 4 C1.66 3.67 2.32 3.34 3 3 C3 2.34 3 1.68 3 1 C2.01 0.67 1.02 0.34 0 0 Z "
		fill="#F1C865" transform="translate(208,460)" />
	<path
		d="M0 0 C2.97 0 5.94 0 9 0 C5.31193524 2.45870984 1.72194714 3.45051883 -2.5 4.6875 C-3.65822266 5.04424805 -3.65822266 5.04424805 -4.83984375 5.40820312 C-5.58363281 5.62798828 -6.32742188 5.84777344 -7.09375 6.07421875 C-7.77115234 6.27619873 -8.44855469 6.47817871 -9.14648438 6.6862793 C-11 7 -11 7 -14 6 C-13.34 6 -12.68 6 -12 6 C-12 5.34 -12 4.68 -12 4 C-7.8803623 2.70756464 -4.33168317 1.73747375 0 2 C0 1.34 0 0.68 0 0 Z "
		fill="#F1D075" transform="translate(316,453)" />
	<path
		d="M0 0 C3 2 3 2 3.66015625 3.953125 C3.79292969 4.71109375 3.92570312 5.4690625 4.0625 6.25 C4.59475238 9.04544319 5.17244475 11.48859345 6.125 14.1875 C7.0811033 17.26068919 7.1523511 19.80062691 7 23 C4.68518983 19.52778475 3.58998108 16.0076566 2.375 12.0625 C2.14554688 11.34642578 1.91609375 10.63035156 1.6796875 9.89257812 C0.59491265 6.40903032 0 3.68101033 0 0 Z "
		fill="#F5D988" transform="translate(29,296)" />
	<path
		d="M0 0 C0.33 0 0.66 0 1 0 C0.38641858 8.80171974 -1.29549385 17.35954742 -3 26 C-3.33 26 -3.66 26 -4 26 C-3.40546697 8.14350797 -3.40546697 8.14350797 0 0 Z "
		fill="#F2D790" transform="translate(470,272)" />
	<path
		d="M0 0 C4.37934119 0.51958285 8.68803391 1.05675742 13 2 C13 2.66 13 3.32 13 4 C13.99 4 14.98 4 16 4 C16 4.66 16 5.32 16 6 C16.66 6.33 17.32 6.66 18 7 C13.51006131 6.41347648 9.77456816 5.2356462 5.625 3.4375 C4.56539062 2.98246094 3.50578125 2.52742188 2.4140625 2.05859375 C1.61742187 1.70925781 0.82078125 1.35992187 0 1 C0 0.67 0 0.34 0 0 Z "
		fill="#F7E39B" transform="translate(156,447)" />
	<path
		d="M0 0 C-5.52240576 4.11242982 -9.09296024 5.61669998 -16 5 C-14.54987453 2.09974906 -12.68687091 1.91293145 -9.6875 0.8125 C-8.72199219 0.44769531 -7.75648438 0.08289062 -6.76171875 -0.29296875 C-3.9652203 -1.008904 -2.66140462 -0.99249531 0 0 Z "
		fill="#F6D580" transform="translate(176,32)" />
	<path
		d="M0 0 C3.875 1.75 3.875 1.75 5 4 C5.66 3.67 6.32 3.34 7 3 C7.85856655 6.4342662 7.97591583 8.61682513 7 12 C5.82767315 10.3790787 4.6622923 8.75313167 3.5 7.125 C2.8503125 6.22007812 2.200625 5.31515625 1.53125 4.3828125 C0 2 0 2 0 0 Z "
		fill="#F6D771" transform="translate(55,358)" />
	<path
		d="M0 0 C0.33 0 0.66 0 1 0 C1 1.65 1 3.3 1 5 C1.66 5 2.32 5 3 5 C2.625 6.9375 2.625 6.9375 2 9 C1.01 9.495 1.01 9.495 0 10 C-0.65772428 13.02934491 -0.65772428 13.02934491 -1 16 C-1.33 16 -1.66 16 -2 16 C-2.20413361 10.26157749 -2.27141454 5.39460953 0 0 Z "
		fill="#F5CA5B" transform="translate(34,171)" />
	<path
		d="M0 0 C2.91226879 1.4561344 3.31842064 3.49960664 4.625 6.4375 C5.07101562 7.42621094 5.51703125 8.41492188 5.9765625 9.43359375 C7 12 7 12 7 14 C5.109375 13.76953125 5.109375 13.76953125 3 13 C1.953125 11.07421875 1.953125 11.07421875 1.25 8.6875 C1.00765625 7.90761719 0.7653125 7.12773437 0.515625 6.32421875 C0 4 0 4 0 0 Z "
		fill="#F2D17B" transform="translate(448,141)" />
	<path
		d="M0 0 C0.66 0 1.32 0 2 0 C2 0.66 2 1.32 2 2 C2.66 2 3.32 2 4 2 C4 2.66 4 3.32 4 4 C4.598125 4.268125 5.19625 4.53625 5.8125 4.8125 C7.97224808 5.98493467 9.35790256 7.19369282 11 9 C10.67 9.66 10.34 10.32 10 11 C9.62875 10.54625 9.2575 10.0925 8.875 9.625 C6.45735315 7.52970606 4.04569398 6.87986715 1 6 C0.67 4.02 0.34 2.04 0 0 Z "
		fill="#F6D985" transform="translate(402,80)" />
	<path
		d="M0 0 C0.33 0.99 0.66 1.98 1 3 C-2.68991989 6.90077246 -6.21715436 9.60857718 -11 12 C-10.1875 10.0625 -10.1875 10.0625 -9 8 C-8.01 7.67 -7.02 7.34 -6 7 C-6 6.34 -6 5.68 -6 5 C-5.34 5 -4.68 5 -4 5 C-4 4.34 -4 3.68 -4 3 C-3.34 3 -2.68 3 -2 3 C-2 2.34 -2 1.68 -2 1 C-1.34 0.67 -0.68 0.34 0 0 Z "
		fill="#F5DD8A" transform="translate(95,77)" />
	<path
		d="M0 0 C2 3 2 3 2 5 C2.99 5 3.98 5 5 5 C5.66 6.98 6.32 8.96 7 11 C7.66 11 8.32 11 9 11 C9.33 12.65 9.66 14.3 10 16 C6.60582235 12.87378374 4.3937282 10.43458973 3 6 C2.34 6 1.68 6 1 6 C0.34 4.35 -0.32 2.7 -1 1 C-0.67 0.67 -0.34 0.34 0 0 Z "
		fill="#F6DE8B" transform="translate(64,369)" />
	<path
		d="M0 0 C3.59478807 3.32850747 6.22364768 6.98971331 9 11 C8.67 11.66 8.34 12.32 8 13 C6.68 12.01 5.36 11.02 4 10 C3.67 10.66 3.34 11.32 3 12 C1.57499941 8.00999834 0.59924224 4.19469571 0 0 Z "
		fill="#F6DF8D" transform="translate(425,104)" />
	<path
		d="M0 0 C1.32 0.33 2.64 0.66 4 1 C3.01 1 2.02 1 1 1 C1 1.66 1 2.32 1 3 C-0.78953185 3.83790789 -2.58169695 4.67019396 -4.375 5.5 C-5.87160156 6.19609375 -5.87160156 6.19609375 -7.3984375 6.90625 C-10 8 -10 8 -12 8 C-12 7.01 -12 6.02 -12 5 C-10.68 5 -9.36 5 -8 5 C-8 4.34 -8 3.68 -8 3 C-5.36 2.67 -2.72 2.34 0 2 C0 1.34 0 0.68 0 0 Z "
		fill="#F3D383" transform="translate(354,438)" />
	<path
		d="M0 0 C0.33 0 0.66 0 1 0 C1.08078641 2.12438339 1.13909141 4.2496323 1.1875 6.375 C1.22230469 7.55835938 1.25710937 8.74171875 1.29296875 9.9609375 C1.19628906 10.96382812 1.09960938 11.96671875 1 13 C0.01 13.66 -0.98 14.32 -2 15 C-2.19392201 9.47322267 -1.7479503 5.24385089 0 0 Z "
		fill="#F2D270" transform="translate(26,205)" />
	<path
		d="M0 0 C2.52588702 2.36292656 3.88820837 3.66462511 5 7 C4.34 7 3.68 7 3 7 C2.34 7.66 1.68 8.32 1 9 C0.34 8.67 -0.32 8.34 -1 8 C-1.04241723 5.66705225 -1.04092937 3.33297433 -1 1 C-0.67 0.67 -0.34 0.34 0 0 Z "
		fill="#FCCD4B" transform="translate(90,354)" />
	<path
		d="M0 0 C0.33 0 0.66 0 1 0 C0.63223832 6.30267439 -0.16625922 11.33251843 -3 17 C-3.33 17 -3.66 17 -4 17 C-4 14.69 -4 12.38 -4 10 C-3.34 10 -2.68 10 -2 10 C-1.34 6.7 -0.68 3.4 0 0 Z "
		fill="#EFC96F" transform="translate(465,295)" />
	<path
		d="M0 0 C0.66 0.33 1.32 0.66 2 1 C1.67 1.99 1.34 2.98 1 4 C0.01 4.33 -0.98 4.66 -2 5 C-2.7115625 5.804375 -2.7115625 5.804375 -3.4375 6.625 C-3.953125 7.07875 -4.46875 7.5325 -5 8 C-6.32 7.67 -7.64 7.34 -9 7 C-6.03 4.69 -3.06 2.38 0 0 Z "
		fill="#F4D578" transform="translate(120,57)" />
	<path
		d="M0 0 C0.99 0 1.98 0 3 0 C2.35550393 3.01217112 1.34977818 5.51655836 -0.0625 8.25 C-0.42472656 8.95640625 -0.78695313 9.6628125 -1.16015625 10.390625 C-1.43730469 10.92171875 -1.71445312 11.4528125 -2 12 C-2.97591583 8.61682513 -2.85856655 6.4342662 -2 3 C-1.34 3 -0.68 3 0 3 C0 2.01 0 1.02 0 0 Z "
		fill="#F0CE73" transform="translate(447,340)" />
	<path
		d="M0 0 C1.88391785 3.26545761 2.49287967 6.28111761 3 10 C2.67 9.34 2.34 8.68 2 8 C0.02 8 -1.96 8 -4 8 C-4 7.01 -4 6.02 -4 5 C-3.01 4.67 -2.02 4.34 -1 4 C-0.26676204 1.98491642 -0.26676204 1.98491642 0 0 Z "
		fill="#F4C85E" transform="translate(460,168)" />
	<path
		d="M0 0 C2.94956528 1.36944102 5.52468811 2.87830409 8 5 C8 5.66 8 6.32 8 7 C8.66 7 9.32 7 10 7 C10 7.66 10 8.32 10 9 C9.01 9 8.02 9 7 9 C7 8.34 7 7.68 7 7 C5.35 6.67 3.7 6.34 2 6 C1.34 4.02 0.68 2.04 0 0 Z "
		fill="#F2D77E" transform="translate(392,71)" />
	<path
		d="M0 0 C0 0.66 0 1.32 0 2 C1.32 2.33 2.64 2.66 4 3 C2.25 4.5625 2.25 4.5625 0 6 C-2.125 5.875 -2.125 5.875 -4 5 C-4.66 4.01 -5.32 3.02 -6 2 C-2.25 0 -2.25 0 0 0 Z "
		fill="#F8CD4B" transform="translate(342,40)" />
	<path
		d="M0 0 C2.63382667 2.49634671 3.96659556 4.46920151 5 8 C4.625 10.3125 4.625 10.3125 4 12 C1.95780294 10.30820672 1.08206694 9.36272334 0.48828125 6.73828125 C0.43027344 5.93777344 0.37226562 5.13726562 0.3125 4.3125 C0.24675781 3.50425781 0.18101563 2.69601562 0.11328125 1.86328125 C0.07589844 1.24839844 0.03851563 0.63351562 0 0 Z "
		fill="#F6D469" transform="translate(51,346)" />
	<path
		d="M0 0 C0 0.99 0 1.98 0 3 C-6.96428571 6.34821429 -6.96428571 6.34821429 -11 5 C-9.54462432 4.16151196 -8.08559627 3.32936066 -6.625 2.5 C-5.81289062 2.0359375 -5.00078125 1.571875 -4.1640625 1.09375 C-2 0 -2 0 0 0 Z "
		fill="#F5DA8A" transform="translate(148,42)" />
	<path
		d="M0 0 C2.52259061 1.97420135 2.9929808 2.96745642 3.6875 6.1875 C3.790625 7.115625 3.89375 8.04375 4 9 C3.01 9 2.02 9 1 9 C-1 7 -1 7 -1.1875 3.9375 C-1 1 -1 1 0 0 Z "
		fill="#FBCB4A" transform="translate(74,328)" />
	<path
		d="M0 0 C4.571279 0.54855348 8.67435795 1.41744803 13 3 C13 3.33 13 3.66 13 4 C11.3954444 3.85851011 9.79136233 3.71164314 8.1875 3.5625 C7.29417969 3.48128906 6.40085937 3.40007813 5.48046875 3.31640625 C3 3 3 3 0 2 C0 1.34 0 0.68 0 0 Z "
		fill="#FCC94C" transform="translate(288,54)" />
	<path
		d="M0 0 C1.60379341 -0.05416188 3.20811406 -0.09286638 4.8125 -0.125 C5.70582031 -0.14820313 6.59914063 -0.17140625 7.51953125 -0.1953125 C10 0 10 0 13 2 C10.46053077 2.84648974 9.09437602 3.02071669 6.4375 2.4375 C3.75194866 1.66489008 3.75194866 1.66489008 1 4 C0.67 2.68 0.34 1.36 0 0 Z "
		fill="#F5D462" transform="translate(320,34)" />
	<path
		d="M0 0 C1.485 0.99 1.485 0.99 3 2 C3 2.66 3 3.32 3 4 C3.639375 4.268125 4.27875 4.53625 4.9375 4.8125 C7 6 7 6 8 9 C5.525 8.01 5.525 8.01 3 7 C3 6.34 3 5.68 3 5 C2.34 5 1.68 5 1 5 C0.67 3.35 0.34 1.7 0 0 Z "
		fill="#F4D87C" transform="translate(103,411)" />
	<path
		d="M0 0 C0.66 0.33 1.32 0.66 2 1 C-0.88341534 5.21422242 -3.04303419 6.76075855 -8 8 C-5.58443874 4.80800833 -3.31996462 2.25283313 0 0 Z "
		fill="#F7D682" transform="translate(104,69)" />
	<path
		d="M0 0 C4.43458973 1.3937282 6.87378374 3.60582235 10 7 C9.01 7 8.02 7 7 7 C7 6.34 7 5.68 7 5 C6.21625 4.9175 5.4325 4.835 4.625 4.75 C2 4 2 4 0.6875 1.9375 C0.460625 1.298125 0.23375 0.65875 0 0 Z "
		fill="#F6E093" transform="translate(376,59)" />
	<path
		d="M0 0 C2.24606427 1.77444972 2.95081002 2.58352485 3.29296875 5.48046875 C3.25816406 6.37378906 3.22335938 7.26710938 3.1875 8.1875 C3.16042969 9.08855469 3.13335938 9.98960937 3.10546875 10.91796875 C3.07066406 11.60503906 3.03585938 12.29210937 3 13 C2.67 13 2.34 13 2 13 C1.66127487 11.58461283 1.32925376 10.16762037 1 8.75 C0.814375 7.96109375 0.62875 7.1721875 0.4375 6.359375 C0 4 0 4 0 0 Z "
		fill="#F6E08F" transform="translate(26,282)" />
	<path
		d="M0 0 C0.66 1.32 1.32 2.64 2 4 C-0.22189824 6.22189824 -2.08482708 6.92598892 -5 8 C-4.34 6.35 -3.68 4.7 -3 3 C-2.34 3 -1.68 3 -1 3 C-0.67 2.01 -0.34 1.02 0 0 Z "
		fill="#F6DA7C" transform="translate(68,107)" />
	<path
		d="M0 0 C3.02419525 0.58803797 6.01758453 1.22678118 9 2 C9 2.99 9 3.98 9 5 C5.22454612 3.90931332 2.52956528 3.0916909 0 0 Z "
		fill="#F7DD8A" transform="translate(140,439)" />
	<path
		d="M0 0 C1.98 0 3.96 0 6 0 C2.80009492 2.74277578 -0.00499382 4.6302836 -4 6 C-3.525625 5.566875 -3.05125 5.13375 -2.5625 4.6875 C-0.76313043 2.97690387 -0.76313043 2.97690387 0 0 Z "
		fill="#F7DD98" transform="translate(373,425)" />
	<path
		d="M0 0 C2.31 0 4.62 0 7 0 C7 0.66 7 1.32 7 2 C4.69 3.32 2.38 4.64 0 6 C0 4.02 0 2.04 0 0 Z "
		fill="#F2CD73" transform="translate(380,418)" />
	<path
		d="M0 0 C1.32 0.33 2.64 0.66 4 1 C4 1.66 4 2.32 4 3 C2.04072937 4.7143618 0.04119788 6.38405168 -2 8 C-2.66 7.67 -3.32 7.34 -4 7 C-3.34 6.01 -2.68 5.02 -2 4 C-1.34 4 -0.68 4 0 4 C0 2.68 0 1.36 0 0 Z "
		fill="#F3DA89" transform="translate(396,406)" />
	<path
		d="M0 0 C1.32 0.66 2.64 1.32 4 2 C2 5 2 5 -0.125 5.6875 C-0.74375 5.790625 -1.3625 5.89375 -2 6 C-2 4.68 -2 3.36 -2 2 C-1.34 2 -0.68 2 0 2 C0 1.34 0 0.68 0 0 Z "
		fill="#F0BD53" transform="translate(400,402)" />
	<path
		d="M0 0 C3.14958831 3.42346555 3.56179109 6.44262737 4 11 C1.29727467 8.12835434 0.05208163 6.69008159 -0.25 2.6875 C-0.1675 1.800625 -0.085 0.91375 0 0 Z "
		fill="#F4DC83" transform="translate(48,342)" />
	<path
		d="M0 0 C2.79872437 2.52788007 4.45773019 4.20411134 5 8 C3.68 7.67 2.36 7.34 1 7 C0.67 4.69 0.34 2.38 0 0 Z "
		fill="#F5DB7B" transform="translate(439,125)" />
	<path
		d="M0 0 C-6.625 3 -6.625 3 -10 3 C-9.67 2.01 -9.34 1.02 -9 0 C-5.62182575 -0.84454356 -3.32534757 -1.10844919 0 0 Z "
		fill="#F1D184" transform="translate(342,447)" />
	<path
		d="M0 0 C0.99 0.33 1.98 0.66 3 1 C1.68 3.31 0.36 5.62 -1 8 C-1.33 8 -1.66 8 -2 8 C-2 6.35 -2 4.7 -2 3 C-1.34 3 -0.68 3 0 3 C0 2.01 0 1.02 0 0 Z "
		fill="#F3C96D" transform="translate(435,361)" />
	<path
		d="M0 0 C2.52588702 2.36292656 3.88820837 3.66462511 5 7 C4.01 7 3.02 7 2 7 C1.34 6.34 0.68 5.68 0 5 C0.33 4.34 0.66 3.68 1 3 C0.34 2.67 -0.32 2.34 -1 2 C-0.67 1.34 -0.34 0.68 0 0 Z "
		fill="#FCCD4B" transform="translate(80,339)" />
	<path
		d="M0 0 C0.94875 0.350625 1.8975 0.70125 2.875 1.0625 C2.215 1.7225 1.555 2.3825 0.875 3.0625 C-1.6875 2.8125 -1.6875 2.8125 -4.125 2.0625 C-4.455 1.4025 -4.785 0.7425 -5.125 0.0625 C-3.125 -0.9375 -3.125 -0.9375 0 0 Z "
		fill="#FCCA4B" transform="translate(344.125,73.9375)" />
	<path
		d="M0 0 C1.32 0 2.64 0 4 0 C4 0.66 4 1.32 4 2 C4.99 2 5.98 2 7 2 C7 2.66 7 3.32 7 4 C7.66 4.33 8.32 4.66 9 5 C3.46153846 4.50769231 3.46153846 4.50769231 1.125 1.9375 C0.75375 1.298125 0.3825 0.65875 0 0 Z "
		fill="#F8DC85" transform="translate(165,449)" />
	<path
		d="M0 0 C-2.97 2.475 -2.97 2.475 -6 5 C-6.33 3.35 -6.66 1.7 -7 0 C-2.25 -1.125 -2.25 -1.125 0 0 Z "
		fill="#F3D684" transform="translate(422,386)" />
	<path
		d="M0 0 C0.99 0.33 1.98 0.66 3 1 C3.33 3.97 3.66 6.94 4 10 C1.81024227 6.71536341 1.00193437 3.79303725 0 0 Z "
		fill="#F4D784" transform="translate(36,319)" />
	<path
		d="M0 0 C0.33 0.99 0.66 1.98 1 3 C-1.3125 6.1875 -1.3125 6.1875 -4 9 C-4.66 9 -5.32 9 -6 9 C-4.47291037 5.56404834 -2.40072955 2.88087546 0 0 Z "
		fill="#F9B73E" transform="translate(212,130)" />
	<path
		d="M0 0 C0.66 0.33 1.32 0.66 2 1 C1.34 2.32 0.68 3.64 0 5 C-1.98 5 -3.96 5 -6 5 C-4.06745228 2.9754262 -2.36841312 1.57894208 0 0 Z "
		fill="#F4D471" transform="translate(128,52)" />
	<path
		d="M0 0 C2.64 0 5.28 0 8 0 C4.55549263 2.29633824 2.06187717 2.54016485 -2 3 C-1.34 2.67 -0.68 2.34 0 2 C0 1.34 0 0.68 0 0 Z "
		fill="#F5D680" transform="translate(208,22)" />
	<path
		d="M0 0 C1.98 0.99 1.98 0.99 4 2 C4.66 1.34 5.32 0.68 6 0 C6.66 1.98 7.32 3.96 8 6 C4.08597051 4.73058503 2.20927127 3.48832306 0 0 Z "
		fill="#F7D679" transform="translate(111,420)" />
	<path
		d="M0 0 C-0.33 2.64 -0.66 5.28 -1 8 C-1.33 6.68 -1.66 5.36 -2 4 C-2.66 4 -3.32 4 -4 4 C-4 3.01 -4 2.02 -4 1 C-2 0 -2 0 0 0 Z "
		fill="#F9B73E" transform="translate(173,187)" />
	<path
		d="M0 0 C0.33 0 0.66 0 1 0 C1 2.97 1 5.94 1 9 C0.34 9 -0.32 9 -1 9 C-1.33 9.66 -1.66 10.32 -2 11 C-1.40049704 7.31733897 -0.75241109 3.65456815 0 0 Z "
		fill="#F7E4A2" transform="translate(31,179)" />
	<path
		d="M0 0 C0.33 0 0.66 0 1 0 C0.67 2.31 0.34 4.62 0 7 C-0.99 7.33 -1.98 7.66 -3 8 C-2.37240135 5.07120629 -1.41377341 2.63904371 0 0 Z "
		fill="#F2DD89" transform="translate(49,136)" />
	<path
		d="M0 0 C0.66 0.99 1.32 1.98 2 3 C1.67 3.66 1.34 4.32 1 5 C-0.65 4.67 -2.3 4.34 -4 4 C-2.68 2.68 -1.36 1.36 0 0 Z "
		fill="#FCCC4A" transform="translate(307,56)" />
	<path
		d="M0 0 C2.35171131 0.59861742 4.6859378 1.26924352 7 2 C7.33 2.66 7.66 3.32 8 4 C5.36 3.67 2.72 3.34 0 3 C0 2.01 0 1.02 0 0 Z "
		fill="#F4D97C" transform="translate(333,36)" />
</svg>