<svg width="218" height="41" viewBox="0 0 218 41" fill="none" xmlns="http://www.w3.org/2000/svg">
    <g clip-path="url(#clip0_1_34)">
        <path
            d="M186 7.42857C186 6.63959 186.64 6 187.429 6H190.286C191.075 6 191.715 6.63959 191.715 7.42857C191.715 8.21755 191.075 8.85715 190.286 8.85715H187.429C186.64 8.85715 186 8.21755 186 7.42857Z"
            fill="black" />
        <path fill-rule="evenodd" clip-rule="evenodd"
            d="M126 1C136.493 1 145 9.50659 145 20C145 30.4934 136.493 39 126 39C115.507 39 107 30.4934 107 20C107 9.50659 115.507 1 126 1ZM125.313 2.42176C123.146 2.72681 121.082 4.46853 119.479 7.38153C119.015 8.22649 118.595 9.15999 118.23 10.1679C120.408 9.62046 122.802 9.2977 125.313 9.24778V2.42176ZM116.624 10.6243C117.079 9.1981 117.634 7.88598 118.276 6.71962C119.07 5.27556 120.013 4.02855 121.075 3.07078C115.3 4.74797 110.748 9.29995 109.071 15.0749C110.028 14.0129 111.275 13.0703 112.72 12.2761C113.886 11.6346 115.198 11.0786 116.624 10.6243ZM116.168 12.23C115.62 14.4086 115.298 16.8017 115.248 19.3132H108.422C108.727 17.1456 110.468 15.0817 113.381 13.4796C114.226 13.0148 115.16 12.5955 116.168 12.23ZM116.621 19.3132C116.678 16.5724 117.073 13.9992 117.726 11.7257C119.999 11.0729 122.572 10.6782 125.313 10.6215V13.5883C124.291 16.2059 122.205 18.2911 119.588 19.3132H116.621ZM115.248 20.6868H108.422C108.727 22.8544 110.468 24.9182 113.381 26.5204C114.226 26.9852 115.16 27.4045 116.168 27.77C115.62 25.5914 115.298 23.1983 115.248 20.6868ZM117.726 28.2743C117.073 26.0008 116.678 23.4276 116.621 20.6868H119.588C122.205 21.7089 124.291 23.7941 125.313 26.4117V29.3785C122.572 29.3218 119.999 28.9272 117.726 28.2743ZM116.624 29.3757C115.198 28.9214 113.886 28.3654 112.72 27.7239C111.275 26.9297 110.028 25.9871 109.071 24.9251C110.748 30.7 115.3 35.2521 121.075 36.9292C120.013 35.9714 119.07 34.7244 118.276 33.2803C117.634 32.114 117.079 30.8019 116.624 29.3757ZM125.313 37.5782C123.146 37.2732 121.082 35.5315 119.479 32.6185C119.015 31.7735 118.595 30.84 118.23 29.8321C120.408 30.3795 122.802 30.7023 125.313 30.7522V37.5782ZM130.925 36.9292C131.987 35.9714 132.929 34.7244 133.724 33.2803C134.365 32.114 134.922 30.8019 135.376 29.3757C136.802 28.9214 138.114 28.3654 139.28 27.7239C140.724 26.9297 141.971 25.9871 142.929 24.9251C141.251 30.7 136.7 35.2521 130.925 36.9292ZM133.77 29.8321C133.404 30.84 132.984 31.7735 132.52 32.6185C130.918 35.5315 128.854 37.2732 126.687 37.5782V30.7522C129.198 30.7023 131.591 30.3795 133.77 29.8321ZM135.832 27.77C136.84 27.4045 137.773 26.9852 138.618 26.5204C141.532 24.9183 143.273 22.8544 143.578 20.6868H136.752C136.702 23.1983 136.379 25.5914 135.832 27.77ZM135.378 20.6868C135.321 23.4276 134.927 26.0008 134.274 28.2743C132 28.9272 129.427 29.3218 126.687 29.3785V26.4139C127.709 23.7953 129.795 21.7091 132.413 20.6868H135.378ZM136.752 19.3132H143.578C143.273 17.1456 141.532 15.0817 138.618 13.4796C137.773 13.0148 136.84 12.5955 135.832 12.23C136.379 14.4086 136.702 16.8017 136.752 19.3132ZM134.274 11.7257C134.927 13.9992 135.321 16.5724 135.378 19.3132H132.413C129.795 18.2909 127.709 16.2047 126.687 13.5861V10.6215C129.427 10.6782 132 11.0729 134.274 11.7257ZM135.376 10.6243C136.802 11.0786 138.114 11.6346 139.28 12.2761C140.724 13.0703 141.971 14.0129 142.929 15.0749C141.251 9.29995 136.7 4.74797 130.925 3.07078C131.987 4.02855 132.929 5.27556 133.724 6.71962C134.365 7.88598 134.922 9.1981 135.376 10.6243ZM126.687 2.42176C128.854 2.72681 130.918 4.46853 132.52 7.38153C132.984 8.2265 133.404 9.15999 133.77 10.1679C131.591 9.62046 129.198 9.2977 126.687 9.24778V2.42176Z"
            fill="black" />
        <path
            d="M20.0227 31V7.72727H24.9432V26.9432H34.9205V31H20.0227ZM57.0591 19.3636C57.0591 21.9015 56.578 24.0606 55.6159 25.8409C54.6614 27.6212 53.3583 28.9811 51.7068 29.9205C50.0629 30.8523 48.2144 31.3182 46.1614 31.3182C44.0932 31.3182 42.2371 30.8485 40.5932 29.9091C38.9492 28.9697 37.65 27.6098 36.6955 25.8295C35.7409 24.0492 35.2636 21.8939 35.2636 19.3636C35.2636 16.8258 35.7409 14.6667 36.6955 12.8864C37.65 11.1061 38.9492 9.75 40.5932 8.81818C42.2371 7.87879 44.0932 7.40909 46.1614 7.40909C48.2144 7.40909 50.0629 7.87879 51.7068 8.81818C53.3583 9.75 54.6614 11.1061 55.6159 12.8864C56.578 14.6667 57.0591 16.8258 57.0591 19.3636ZM52.0705 19.3636C52.0705 17.7197 51.8242 16.3333 51.3318 15.2045C50.847 14.0758 50.1614 13.2197 49.275 12.6364C48.3886 12.053 47.3508 11.7614 46.1614 11.7614C44.972 11.7614 43.9341 12.053 43.0477 12.6364C42.1614 13.2197 41.472 14.0758 40.9795 15.2045C40.4947 16.3333 40.2523 17.7197 40.2523 19.3636C40.2523 21.0076 40.4947 22.3939 40.9795 23.5227C41.472 24.6515 42.1614 25.5076 43.0477 26.0909C43.9341 26.6742 44.972 26.9659 46.1614 26.9659C47.3508 26.9659 48.3886 26.6742 49.275 26.0909C50.1614 25.5076 50.847 24.6515 51.3318 23.5227C51.8242 22.3939 52.0705 21.0076 52.0705 19.3636ZM74.5358 15.25C74.3767 14.697 74.1532 14.2083 73.8653 13.7841C73.5775 13.3523 73.2252 12.9886 72.8085 12.6932C72.3994 12.3902 71.9297 12.1591 71.3994 12C70.8767 11.8409 70.2972 11.7614 69.6608 11.7614C68.4714 11.7614 67.4259 12.0568 66.5244 12.6477C65.6305 13.2386 64.9335 14.0985 64.4335 15.2273C63.9335 16.3485 63.6835 17.7197 63.6835 19.3409C63.6835 20.9621 63.9297 22.3409 64.4222 23.4773C64.9146 24.6136 65.6116 25.4811 66.5131 26.0795C67.4146 26.6705 68.479 26.9659 69.7062 26.9659C70.8199 26.9659 71.7706 26.7689 72.5585 26.375C73.354 25.9735 73.96 25.4091 74.3767 24.6818C74.8009 23.9545 75.0131 23.0947 75.0131 22.1023L76.0131 22.25H70.0131V18.5455H79.7517V21.4773C79.7517 23.5227 79.3199 25.2803 78.4562 26.75C77.5926 28.2121 76.4032 29.3409 74.8881 30.1364C73.3729 30.9242 71.6381 31.3182 69.6835 31.3182C67.5017 31.3182 65.585 30.8371 63.9335 29.875C62.282 28.9053 60.9941 27.5303 60.0699 25.75C59.1532 23.9621 58.6949 21.8409 58.6949 19.3864C58.6949 17.5 58.9676 15.8182 59.5131 14.3409C60.0661 12.8561 60.8388 11.5985 61.8312 10.5682C62.8237 9.53788 63.979 8.75379 65.2972 8.21591C66.6153 7.67803 68.0434 7.40909 69.5812 7.40909C70.8994 7.40909 72.1267 7.60227 73.2631 7.98864C74.3994 8.36742 75.407 8.9053 76.2858 9.60227C77.1722 10.2992 77.8956 11.1288 78.4562 12.0909C79.0169 13.0455 79.3767 14.0985 79.5358 15.25H74.5358ZM103.234 19.3636C103.234 21.9015 102.753 24.0606 101.791 25.8409C100.836 27.6212 99.5333 28.9811 97.8818 29.9205C96.2379 30.8523 94.3894 31.3182 92.3364 31.3182C90.2682 31.3182 88.4121 30.8485 86.7682 29.9091C85.1242 28.9697 83.825 27.6098 82.8705 25.8295C81.9159 24.0492 81.4386 21.8939 81.4386 19.3636C81.4386 16.8258 81.9159 14.6667 82.8705 12.8864C83.825 11.1061 85.1242 9.75 86.7682 8.81818C88.4121 7.87879 90.2682 7.40909 92.3364 7.40909C94.3894 7.40909 96.2379 7.87879 97.8818 8.81818C99.5333 9.75 100.836 11.1061 101.791 12.8864C102.753 14.6667 103.234 16.8258 103.234 19.3636ZM98.2455 19.3636C98.2455 17.7197 97.9992 16.3333 97.5068 15.2045C97.022 14.0758 96.3364 13.2197 95.45 12.6364C94.5636 12.053 93.5258 11.7614 92.3364 11.7614C91.147 11.7614 90.1091 12.053 89.2227 12.6364C88.3364 13.2197 87.647 14.0758 87.1545 15.2045C86.6697 16.3333 86.4273 17.7197 86.4273 19.3636C86.4273 21.0076 86.6697 22.3939 87.1545 23.5227C87.647 24.6515 88.3364 25.5076 89.2227 26.0909C90.1091 26.6742 91.147 26.9659 92.3364 26.9659C93.5258 26.9659 94.5636 26.6742 95.45 26.0909C96.3364 25.5076 97.022 24.6515 97.5068 23.5227C97.9992 22.3939 98.2455 21.0076 98.2455 19.3636Z"
            fill="black" />
        <path
            d="M153.009 33H146.207L159.388 6.81818H167.812L172.3 33H165.499L162.622 13.4148H162.418L153.009 33ZM153.827 22.696H168.043L167.224 27.5028H153.009L153.827 22.696ZM183.993 6.81818L179.647 33H173.319L177.665 6.81818H183.993Z"
            fill="black" />
    </g>
    <defs>
        <clipPath id="clip0_1_34">
            <rect width="218" height="40" fill="white" transform="translate(0 0.5)" />
        </clipPath>
    </defs>
</svg>