<svg width="200" height="200" viewBox="0 0 200 200" fill="none" xmlns="http://www.w3.org/2000/svg">
    <g clip-path="url(#clip0_1_76)">
        <path fill-rule="evenodd" clip-rule="evenodd"
            d="M100 0C155.229 0 200 44.7715 200 100C200 155.229 155.229 200 100 200C44.7715 200 0 155.229 0 100C0 44.7715 44.7715 0 100 0ZM96.3855 7.48295C84.9775 9.08845 74.1145 18.2554 65.682 33.587C63.236 38.0342 61.029 42.9473 59.1055 48.2522C70.5715 45.3709 83.167 43.6721 96.3855 43.4094V7.48295ZM50.654 50.654C53.0455 43.1479 55.9715 36.242 59.348 30.1032C63.528 22.5029 68.489 15.9397 74.0785 10.8988C43.684 19.7261 19.7261 43.6839 10.8989 74.0785C15.9397 68.489 22.503 63.528 30.1033 59.348C36.242 55.9715 43.1479 53.0455 50.654 50.654ZM48.252 59.1055C45.3708 70.5715 43.6721 83.167 43.4094 96.3855H7.48292C9.08847 84.977 18.2554 74.114 33.587 65.682C38.0342 63.236 42.9473 61.029 48.252 59.1055ZM50.64 96.3855C50.9385 81.96 53.015 68.417 56.451 56.451C68.417 53.015 81.9605 50.938 96.3855 50.6395V66.254C91.004 80.031 80.028 91.006 66.2505 96.3855H50.64ZM43.4094 103.615H7.48292C9.08847 115.023 18.2554 125.885 33.587 134.318C38.0342 136.764 42.9473 138.971 48.252 140.895C45.3708 129.429 43.6721 116.833 43.4094 103.615ZM56.451 143.549C53.015 131.583 50.9385 118.04 50.64 103.615H66.2505C80.028 108.994 91.0045 119.969 96.3855 133.746V149.361C81.9605 149.062 68.417 146.985 56.451 143.549ZM50.654 149.346C43.1479 146.954 36.242 144.028 30.1033 140.652C22.503 136.472 15.9397 131.511 10.8989 125.921C19.7261 156.316 43.684 180.274 74.0785 189.101C68.489 184.06 63.528 177.497 59.348 169.897C55.9715 163.758 53.0455 156.852 50.654 149.346ZM96.3855 192.517C84.9775 190.911 74.1145 181.744 65.682 166.413C63.236 161.966 61.029 157.053 59.1055 151.748C70.5715 154.629 83.167 156.328 96.3855 156.59V192.517ZM125.921 189.101C131.511 184.06 136.472 177.497 140.652 169.897C144.028 163.758 146.954 156.852 149.346 149.346C156.852 146.954 163.758 144.028 169.897 140.652C177.497 136.472 184.061 131.511 189.101 125.921C180.274 156.316 156.316 180.274 125.921 189.101ZM140.895 151.748C138.971 157.053 136.764 161.966 134.318 166.413C125.886 181.744 115.023 190.911 103.614 192.517V156.59C116.833 156.328 129.428 154.629 140.895 151.748ZM151.748 140.895C157.053 138.971 161.966 136.764 166.413 134.318C181.744 125.885 190.912 115.023 192.517 103.615H156.59C156.328 116.833 154.629 129.429 151.748 140.895ZM149.36 103.615C149.062 118.04 146.985 131.583 143.549 143.549C131.583 146.985 118.04 149.062 103.614 149.361V133.757C108.994 119.975 119.972 108.996 133.754 103.615H149.36ZM156.59 96.3855H192.517C190.912 84.977 181.744 74.114 166.413 65.682C161.966 63.236 157.053 61.029 151.748 59.1055C154.629 70.5715 156.328 83.167 156.59 96.3855ZM143.549 56.451C146.985 68.417 149.062 81.96 149.36 96.3855H133.754C119.972 91.0045 108.994 80.0245 103.614 66.2425V50.6395C118.04 50.938 131.583 53.015 143.549 56.451ZM149.346 50.654C156.852 53.0455 163.758 55.9715 169.897 59.348C177.497 63.528 184.061 68.489 189.101 74.0785C180.274 43.6839 156.316 19.7261 125.921 10.8988C131.511 15.9397 136.472 22.5029 140.652 30.1032C144.028 36.242 146.954 43.1479 149.346 50.654ZM103.614 7.48295C115.023 9.08845 125.886 18.2554 134.318 33.587C136.764 38.0342 138.971 42.9473 140.895 48.2522C129.428 45.3709 116.833 43.6721 103.614 43.4094V7.48295Z"
            fill="black" />
    </g>
    <defs>
        <clipPath id="clip0_1_76">
            <rect width="200" height="200" fill="white" />
        </clipPath>
    </defs>
</svg>