<svg width="78" height="78" viewBox="0 0 78 78" fill="none" xmlns="http://www.w3.org/2000/svg">
    <path fill-rule="evenodd" clip-rule="evenodd"
        d="M38.5 11C53.6878 11 66 23.3122 66 38.5C66 53.6878 53.6878 66 38.5 66C23.3122 66 11 53.6878 11 38.5C11 23.3122 23.3122 11 38.5 11ZM37.506 13.0578C34.3688 13.4993 31.3815 16.0202 29.0625 20.2364C28.3899 21.4594 27.783 22.8105 27.254 24.2694C30.4072 23.477 33.8709 23.0098 37.506 22.9376V13.0578ZM24.9298 24.9299C25.5875 22.8657 26.3922 20.9665 27.3207 19.2784C28.4702 17.1883 29.8345 15.3834 31.3716 13.9972C23.0131 16.4247 16.4247 23.0131 13.9972 31.3716C15.3834 29.8345 17.1883 28.4702 19.2784 27.3207C20.9666 26.3922 22.8657 25.5875 24.9298 24.9299ZM24.2693 27.254C23.477 30.4072 23.0098 33.8709 22.9376 37.506H13.0578C13.4993 34.3687 16.0202 31.3814 20.2364 29.0626C21.4594 28.3899 22.8105 27.783 24.2693 27.254ZM24.926 37.506C25.0081 33.539 25.5791 29.8147 26.524 26.524C29.8147 25.5791 33.5391 25.008 37.506 24.9259V29.2199C36.0261 33.0085 33.0077 36.0266 29.2189 37.506H24.926ZM22.9376 39.494H13.0578C13.4993 42.6313 16.0202 45.6185 20.2364 47.9374C21.4594 48.6101 22.8105 49.217 24.2693 49.746C23.477 46.5928 23.0098 43.1291 22.9376 39.494ZM26.524 50.476C25.5791 47.1853 25.0081 43.461 24.926 39.494H29.2189C33.0077 40.9734 36.0262 43.9915 37.506 47.7802V52.0741C33.5391 51.9921 29.8147 51.4209 26.524 50.476ZM24.9298 52.0701C22.8657 51.4125 20.9666 50.6078 19.2784 49.6793C17.1883 48.5298 15.3834 47.1655 13.9972 45.6284C16.4247 53.9869 23.0131 60.5754 31.3716 63.0028C29.8345 61.6165 28.4702 59.8117 27.3207 57.7215C26.3922 56.0335 25.5875 54.1343 24.9298 52.0701ZM37.506 63.9422C34.3688 63.5007 31.3815 60.9797 29.0625 56.7636C28.3899 55.5407 27.783 54.1894 27.254 52.7307C30.4072 53.523 33.8709 53.9902 37.506 54.0624V63.9422ZM45.6284 63.0028C47.1655 61.6165 48.5298 59.8117 49.6794 57.7215C50.6078 56.0335 51.4125 54.1343 52.0701 52.0701C54.1343 51.4125 56.0334 50.6078 57.7217 49.6793C59.8117 48.5298 61.6166 47.1655 63.0028 45.6284C60.5754 53.9869 53.9869 60.5754 45.6284 63.0028ZM49.746 52.7307C49.217 54.1894 48.6101 55.5407 47.9374 56.7636C45.6186 60.9797 42.6313 63.5007 39.494 63.9422V54.0624C43.1291 53.9902 46.5928 53.523 49.746 52.7307ZM52.7307 49.746C54.1894 49.217 55.5406 48.6101 56.7636 47.9374C60.9797 45.6185 63.5007 42.6313 63.9422 39.494H54.0624C53.9902 43.1291 53.523 46.5928 52.7307 49.746ZM52.0741 39.494C51.992 43.461 51.4209 47.1853 50.476 50.476C47.1853 51.4209 43.461 51.9921 39.494 52.0741V47.7833C40.9733 43.9933 43.9924 40.9738 47.7823 39.494H52.0741ZM54.0624 37.506H63.9422C63.5007 34.3687 60.9797 31.3814 56.7636 29.0626C55.5406 28.3899 54.1894 27.783 52.7307 27.254C53.523 30.4072 53.9902 33.8709 54.0624 37.506ZM50.476 26.524C51.4209 29.8147 51.992 33.539 52.0741 37.506H47.7823C43.9924 36.0262 40.9733 33.0067 39.494 29.2167V24.9259C43.461 25.008 47.1853 25.5791 50.476 26.524ZM52.0701 24.9299C54.1343 25.5875 56.0334 26.3922 57.7217 27.3207C59.8117 28.4702 61.6166 29.8345 63.0028 31.3716C60.5754 23.0131 53.9869 16.4247 45.6284 13.9972C47.1655 15.3834 48.5298 17.1883 49.6794 19.2784C50.6078 20.9665 51.4125 22.8657 52.0701 24.9299ZM39.494 13.0578C42.6313 13.4993 45.6186 16.0202 47.9374 20.2364C48.6101 21.4594 49.217 22.8105 49.746 24.2694C46.5928 23.477 43.1291 23.0098 39.494 22.9376V13.0578Z"
        fill="black" />
</svg>